<svg width="390" height="844" viewBox="0 0 390 844" fill="none" xmlns="http://www.w3.org/2000/svg">
<g clip-path="url(#clip0_10_2)">
<rect width="390" height="844" rx="40" fill="#CBD5E1"/>
<ellipse cx="81" cy="510.5" rx="356" ry="345.5" fill="url(#paint0_radial_10_2)" fill-opacity="0.8"/>
<ellipse cx="376.5" cy="299" rx="427.5" ry="424" fill="url(#paint1_radial_10_2)" fill-opacity="0.75"/>
<rect x="46" y="293" width="298" height="48" rx="9" fill="white" stroke="white" stroke-width="2"/>
<rect x="45" y="428" width="298" height="48" rx="9" fill="white" stroke="white" stroke-width="2"/>
<path d="M55 359H335C339.971 359 344 363.029 344 368V398C344 402.971 339.971 407 335 407H55C50.0294 407 46 402.971 46 398V368C46 363.029 50.0294 359 55 359Z" fill="white" stroke="white" stroke-width="2"/>
</g>
<defs>
<radialGradient id="paint0_radial_10_2" cx="0" cy="0" r="1" gradientUnits="userSpaceOnUse" gradientTransform="translate(81 510.5) rotate(90) scale(345.5 356)">
<stop offset="0.335" stop-color="#FCD34D"/>
<stop offset="1" stop-color="#FCD34D" stop-opacity="0"/>
</radialGradient>
<radialGradient id="paint1_radial_10_2" cx="0" cy="0" r="1" gradientUnits="userSpaceOnUse" gradientTransform="translate(376.5 299) rotate(90) scale(424 427.5)">
<stop offset="0.085" stop-color="#EA580C"/>
<stop offset="1" stop-color="#EA580C" stop-opacity="0"/>
</radialGradient>
<clipPath id="clip0_10_2">
<rect width="390" height="844" rx="40" fill="white"/>
</clipPath>
</defs>
</svg>
