<svg width="390" height="844" viewBox="0 0 390 844" fill="none" xmlns="http://www.w3.org/2000/svg">
<g clip-path="url(#clip0_8_2)">
<rect width="390" height="844" rx="40" fill="#FFEDD5"/>
<path d="M510.893 557.919C510.578 558.807 509.769 559.38 509.05 559.202C508.331 559.025 507.836 559.482 507.926 560.278C508.194 562.663 505.948 562.495 504.444 560.093C502.917 557.783 500.828 557.363 501.456 559.451C501.725 560.291 501.343 560.293 500.31 559.458C499.524 558.78 496.918 557.75 494.56 557.263C492.134 556.663 490.337 555.833 490.472 555.286C490.742 554.193 481.576 553.087 479.644 553.962C478.767 554.422 477.779 554.178 476.701 553.138C474.59 551.263 470.164 551.039 470.747 552.923C470.949 553.649 470.522 553.447 469.826 552.405C469.018 551.432 466.21 550.062 462.908 549.149C458.011 547.745 457.158 547.727 456.415 549.186C455.763 550.281 454.73 550.606 452.843 550.139C450.956 549.673 449.832 549.975 449.405 550.932C448.82 552.141 448.461 551.665 447.788 548.986C447.116 546.307 446.689 545.719 445.813 546.565C444.823 547.48 444.554 547.414 444.128 546.052C443.746 544.895 443.477 544.828 443.274 545.648C443.117 546.285 441.993 546.974 440.825 547.072C439.05 547.309 438.219 546.814 437.051 544.979C436.131 543.688 435.345 543.011 435.21 543.557C435.075 544.104 433.39 543.977 430.829 543.151C427.662 542.078 427.01 542.014 428.201 542.984C429.458 544.068 429.143 544.184 426.313 543.291C423.91 542.6 422.449 542.722 421.146 543.753C419.842 544.784 419.258 544.832 419.191 543.946C419.124 543.06 418.27 543.042 416.045 543.942C411.506 545.719 408.317 544.35 411.913 542.147C412.924 541.527 412.902 541.232 411.733 540.943C410.925 540.743 410.116 540.93 409.981 541.476C409.868 541.931 409.306 542.276 408.767 542.142C408.318 542.031 408.273 541.44 408.79 540.892C409.532 540.205 409.352 540.161 408.184 540.645C406.341 541.543 397.624 541.32 397.827 540.501C397.917 540.136 398.546 539.519 399.333 539.037C400.344 538.417 400.412 538.144 399.693 537.966C399.064 537.811 398.232 538.088 397.85 538.477C397.356 538.935 396.704 538.87 396.233 538.464C395.716 537.853 395.447 538.173 395.581 539.172C395.648 540.059 395.243 540.925 394.614 541.156C393.895 541.365 393.827 541.252 394.344 540.703C394.861 540.154 394.794 539.654 394.345 539.543C393.806 539.41 393.244 539.754 393.109 540.301C392.974 540.847 392.502 540.827 391.986 540.216C391.447 539.697 390.324 539.226 389.403 539.095C388.549 539.077 387.74 538.49 387.516 537.855C387.359 537.333 386.753 536.7 386.214 536.567C385.585 536.411 385.539 536.98 386.056 537.977C386.684 539.292 386.527 539.543 385.179 539.21C382.663 538.588 380.912 536.416 382.484 535.838C383.114 535.607 381.766 534.887 379.542 534.241C377.318 533.595 375.14 532.379 374.758 531.609C373.838 529.545 353.149 524.14 347.892 524.58C345.151 524.869 343.601 524.583 342.5 523.634C341.714 522.956 339.872 522.308 338.367 522.226C336.772 522.121 335.739 521.673 335.559 520.855C335.492 519.969 335.133 519.88 334.414 520.475C333.312 521.459 319.205 519.131 319.497 517.947C319.745 516.945 314.42 518.045 313.183 519.189C312.06 520.264 310.262 520.206 310.735 519.067C311.432 517.403 311.14 516.654 310.129 517.661C309.117 518.667 308.758 518.578 307.703 517.061C306.535 515.613 306.445 515.59 306.871 516.952C307.14 518.178 307.028 518.247 306.287 517.001C305.097 515.257 300.717 514.078 299.908 515.424C299.48 515.995 298.919 515.953 298.133 515.275C296.786 513.782 293.259 513.394 289.596 514.324C287.484 514.769 285.732 514.529 283.171 513.316C281.194 512.441 279.016 511.612 278.454 511.57C277.825 511.414 277.353 511.008 277.443 510.643C277.646 509.824 262.236 506.207 260.685 506.694C260.146 506.947 258.282 506.39 256.664 505.603C254.216 504.321 253.16 504.35 250.576 505.548C248.845 506.376 247.654 507.338 247.834 507.769C248.372 508.675 245.631 510.51 244.283 510.177C243.744 510.044 243.452 509.295 243.632 508.566C243.812 507.838 244.689 507.378 245.587 507.6C247.047 507.864 247.047 507.864 245.745 506.576C244.982 505.808 243.319 505.203 242.084 505.188C240.848 505.172 239.635 504.679 239.411 504.044C239.276 503.431 238.153 502.96 236.985 503.057C234.491 503.117 225.011 501.74 220.877 500.718C219.193 500.205 216.519 500.221 214.901 500.594C213.373 500.989 212.115 501.065 212.205 500.701C212.295 500.336 211.711 500.385 210.947 500.776C210.183 501.167 207.914 501.089 205.87 500.487C201.107 499.31 194.794 499.779 195.669 501.251C196.073 501.931 197.062 502.176 198.477 501.849C199.713 501.478 200.545 501.587 200.432 502.042C200.319 502.498 198.926 503.12 197.241 503.379C195.646 503.662 194.185 504.17 194.073 504.626C193.96 505.081 193.061 505.245 191.983 504.979C190.635 504.646 190.163 505.012 190.275 506.103C190.364 506.898 190.184 507.24 189.803 506.856C189.421 506.472 188.747 506.498 188.252 506.956C187.87 507.345 188.297 507.933 189.285 508.178C190.363 508.444 191.082 509.008 190.947 509.555C190.834 510.01 191.171 510.577 191.71 510.71C192.16 510.821 192.452 510.41 192.227 509.775C191.958 508.935 192.318 509.024 193.396 510.064C194.249 510.854 195.305 511.212 195.732 511.028C196.069 510.821 196.293 511.07 196.158 511.616C196.001 512.254 196.697 512.909 197.685 513.153C198.674 513.398 199.392 513.962 199.257 514.508C199.144 514.964 198.785 515.261 198.425 515.173C196.606 514.433 195.415 514.622 195.123 515.806C194.942 516.534 193.482 517.043 191.954 517.052C190.336 517.039 189.011 517.387 188.876 517.934C188.741 518.48 189.414 518.84 190.47 518.811C191.998 518.802 192.11 519.12 191.076 520.99C189.547 523.705 180.424 526.281 179.706 524.171C179.504 523.445 178.74 523.063 178.134 523.203C176.561 523.78 176.921 522.71 178.629 521.586C179.865 520.828 180.224 520.917 180.808 522.414C181.234 523.389 181.728 523.705 181.863 523.158C181.976 522.703 181.662 521.272 181.191 520.093C180.271 518.029 180.271 518.029 178.181 519.542C177.124 520.344 175.686 520.761 175.125 520.333C173.957 519.657 173.147 522.163 174.202 523.294C175.19 524.311 174.582 526.77 173.414 526.481C172.965 526.37 172.65 525.713 172.808 525.075C172.988 524.347 172.337 523.123 171.327 522.196C169.149 520.208 164.408 520.486 163.868 522.672C163.597 523.765 163.912 524.036 165.462 523.549C166.878 523.223 167.597 523.4 167.799 524.127C168.068 524.966 168.629 525.009 169.708 524.502C170.562 524.133 171.506 524.173 171.775 524.627C172.044 525.08 171.64 525.56 171.055 525.608C170.359 525.726 169.617 526.413 169.437 527.141C169.189 528.143 168.403 528.238 166.494 527.477C163.731 526.31 163.686 526.492 162.313 531.275C161.638 533.621 161.772 534.234 163.255 534.407C164.288 534.469 165.074 535.147 165.119 535.738C165.208 536.533 164.467 536.833 163.299 536.544C162.13 536.255 161.501 536.486 161.793 537.235C161.927 537.848 163.118 538.432 164.264 538.426C166.331 538.55 166.398 538.663 164.667 540.265C162.419 542.415 162.329 543.939 164.147 546.611C165.337 548.355 165.337 548.741 163.966 549.272C163.134 549.55 161.764 549.694 160.955 549.494C160.236 549.317 158.349 550.01 156.776 550.974C155.292 551.96 152.955 552.929 151.562 553.164C149.607 553.357 149.427 553.699 150.258 554.581C151.179 555.485 151.066 555.941 150.055 556.561C149.044 557.18 148.505 557.047 147.629 555.961C146.776 554.783 146.641 554.943 146.662 556.785C146.639 558.809 146.527 558.877 145.471 557.36C144.73 556.501 144.146 556.163 144.011 556.709C143.899 557.165 143.023 557.238 142.102 556.72C141.181 556.203 140.305 556.276 140.17 556.823C140.034 557.369 140.371 557.936 140.91 558.069C141.449 558.202 141.516 559.088 140.999 560.024C140.279 561.392 140.549 561.845 142.009 562.109C143.087 562.376 144.885 562.434 145.986 562.223C147.266 562.056 148.389 562.527 149.22 563.795C150.14 565.086 150.477 565.266 150.702 564.355C150.905 563.536 151.422 563.76 152.387 565.255C153.15 566.41 153.576 568.158 153.328 569.16C152.946 570.708 152.743 570.755 151.666 569.329C150.588 567.903 150.498 567.881 150.655 569.562C150.856 570.675 150.429 571.632 149.687 571.932C149.081 572.072 150.81 572.79 153.708 573.409C157.774 574.318 158.942 574.993 159.593 576.604C160.154 577.805 161.03 578.505 162.108 578.385C163.276 578.288 163.501 578.536 162.804 579.427C161.612 581.162 166.577 582.293 169.925 581.091C172.644 580.12 172.711 580.233 171.991 583.148C171.293 585.971 171.181 586.04 170.013 584.205C169.497 583.208 168.419 582.555 167.79 582.786C167.071 582.995 165.992 583.115 165.273 582.937C163.746 582.559 162.329 585.591 163.744 586.038C166.103 586.911 176.661 588.941 178.189 588.932C179.245 588.903 179.671 589.492 179.58 591.016C179.377 592.995 179.781 593.288 183.713 593.97C186.094 594.366 187.913 595.105 187.778 595.652C187.666 596.107 190.002 597.071 192.967 597.804C195.955 598.446 198.583 599.386 198.875 599.748C199.054 600.179 197.998 600.208 196.471 599.83C193.416 599.075 192.225 599.65 192.942 601.761C193.301 603.009 199.614 604.473 210.554 605.728C216.305 606.377 220.327 606.308 220.125 605.581C219.946 605.15 220.575 604.533 221.496 604.277C222.53 603.953 221.317 603.46 217.745 602.867C213.185 602.029 212.758 601.827 214.96 601.405C216.376 601.079 217.993 601.092 218.6 601.339C219.116 601.563 219.746 601.332 219.903 600.694C220.038 600.148 220.712 600.121 221.453 600.594C222.105 601.045 222.576 601.065 222.419 600.543C221.926 599.068 224.689 599.075 225.655 600.57C226.351 601.612 226.44 601.634 226.216 600.612C225.992 599.977 226.217 599.453 226.756 599.586C227.205 599.697 227.632 600.286 227.699 600.785C227.744 601.376 228.934 601.187 230.26 600.452C232.463 599.257 232.957 599.186 233.945 600.59C234.888 601.789 235.247 601.878 235.742 601.034C236.664 599.619 238.146 600.179 237.764 601.727C237.583 602.456 237.92 603.409 238.504 603.746C239.223 604.311 239.155 604.584 238.189 605.022C236.593 605.69 237.333 608.482 239.086 607.949C239.715 607.718 240.95 608.507 241.691 609.753C242.544 610.93 243.038 611.246 242.836 610.519C242.635 609.793 242.927 609.382 243.556 609.538C244.095 609.671 244.184 610.466 243.78 611.332C242.408 613.796 245.239 613.916 247.082 611.472C247.936 610.331 248.791 609.189 248.903 609.12C249.038 608.96 250.004 609.295 250.992 609.926C252.16 610.602 252.429 611.441 251.8 612.445C251.102 613.723 251.417 613.994 253.753 614.185C255.438 614.311 256.449 614.851 256.291 615.489C256.156 616.035 255.684 616.402 255.145 616.268C254.696 616.157 254.134 616.501 253.999 617.048C253.864 617.594 254.425 618.023 255.234 617.837C256.11 617.763 256.582 618.17 256.402 618.898C256.222 619.627 255.48 620.313 254.896 620.362C254.199 620.48 254.491 620.842 255.48 621.086C256.535 621.444 258.041 621.14 258.85 620.567C259.659 619.993 261.075 619.667 261.973 619.889C263.86 620.356 265.43 624.803 263.678 624.949C262.038 625.027 264.911 629.216 267.405 630.316C268.595 630.9 270.235 630.823 271.224 630.294C272.348 629.605 272.819 629.625 272.639 630.354C272.459 631.082 273.762 631.598 277.289 631.987C279.895 632.244 283.377 632.815 284.994 633.215C286.499 633.684 293.756 634.801 301.057 635.736C308.335 636.762 315.547 637.675 317.007 637.94C323.522 638.97 323.409 639.039 322.534 637.567C321.524 635.867 321.817 634.297 322.872 635.427C323.344 635.834 323.748 635.741 323.861 635.285C323.996 634.739 323.479 634.128 322.761 633.95C322.042 633.773 321.323 633.981 321.21 634.437C320.85 635.894 316.222 635.33 312.898 633.348C309.821 631.525 308.609 629.485 311.035 630.085C311.574 630.218 311.821 629.99 311.619 629.65C310.632 627.859 313.935 626.067 317.238 626.593C319.799 627.033 320.72 626.778 320.945 625.48C321.058 624.638 321.688 624.021 322.227 624.154C322.945 624.332 322.99 625.696 322.427 627.586C321.527 630.843 321.729 631.182 324.38 630.871C325.166 630.776 325.728 630.045 325.661 629.159C325.505 627.864 325.909 627.77 327.706 628.601C329.323 629.388 330.11 629.292 330.312 628.472C330.763 626.651 331.257 626.966 333.546 630.818C334.714 632.653 336.106 634.35 336.645 634.483C337.453 634.683 337.521 634.41 336.915 633.391C336.444 632.597 336.31 631.211 336.535 630.301C336.872 628.935 337.187 628.819 337.883 629.861C338.601 630.812 339.253 630.876 340.152 630.325C341.163 629.705 341.433 629.772 341.253 630.501C341.095 631.138 340.555 631.778 339.949 631.918C337.567 632.682 338.645 634.108 341.678 634.181C343.452 634.33 345.496 634.932 346.17 635.679C347.338 636.74 347.293 636.922 345.203 636.889C343.563 636.967 342.754 637.54 342.529 638.837C342.011 641.705 342.594 642.043 349.896 642.591C353.625 642.933 359.556 643.627 363.128 644.22C367.329 644.968 370.294 644.928 372.025 644.1C375.89 642.349 381.102 642.865 381.977 645.11C382.628 646.721 382.807 646.765 383.684 645.146C384.786 643.002 383.888 642.007 380.99 642.16C379.822 642.258 376.227 641.756 372.948 641.139C369.69 640.43 362.951 639.151 357.941 638.202C352.954 637.162 350.079 636.452 351.472 636.603C352.977 636.685 354.527 636.198 354.977 635.536C355.876 634.212 358.37 634.539 358.01 635.996C357.897 636.452 358.302 636.745 358.818 636.583C359.425 636.443 360.077 635.348 360.325 634.346L360.798 632.433L362.391 634.857C364.12 637.507 369.511 639.613 369.961 637.791C370.141 637.062 370.501 637.151 371.219 638.102C372.566 639.981 375.173 639.466 375.151 637.238C375.153 634.919 377.534 634.155 378.117 636.425C378.611 638.286 380.228 639.073 380.341 637.458C380.296 636.867 380.926 636.249 381.6 636.223C382.386 636.127 382.476 636.536 381.891 637.358C381.419 638.111 381.441 638.793 381.98 638.926C382.519 639.059 383.126 638.533 383.329 637.713C383.577 636.712 384.206 636.481 385.374 637.156C386.295 637.673 387.418 637.758 387.8 637.369C389.059 636.134 390.182 636.991 389.709 638.904C389.461 639.906 389.708 640.837 390.157 640.948C390.696 641.081 391.258 640.35 391.506 639.348C391.754 638.346 392.406 637.638 392.855 637.749C393.394 637.882 393.618 638.517 393.438 639.246C393.258 639.975 393.684 640.95 394.426 641.423C396.222 642.64 396.11 642.709 397.189 640.657C398.021 639.219 397.819 638.88 396.292 638.888C395.326 638.94 394.742 638.602 395.214 638.235C395.596 637.847 396.495 637.682 397.213 637.86C397.932 638.038 398.584 637.716 398.696 637.26C399.124 635.53 402.426 637.216 404.289 640.092C405.322 641.701 406.781 643.125 407.5 643.302C408.668 643.591 408.511 643.842 406.803 644.58C405.522 645.133 402.714 644.922 399.187 644.146C396.042 643.369 393.459 643.02 393.369 643.384C393.256 643.84 395.525 644.691 398.4 645.401C401.815 646.246 403.769 647.212 404.172 648.278C404.801 649.593 406.328 649.971 415.944 650.802C432.995 652.408 433.085 652.43 433.423 651.064C433.873 649.242 432.256 648.069 428.145 647.343C423.046 646.372 420.978 646.634 421.18 648.134C421.202 648.816 420.64 649.547 419.854 649.642C417.494 649.929 417.27 649.68 418.798 648.511C419.967 647.641 419.765 647.301 418.08 646.401L415.992 645.208L418.778 643.578C421.363 641.994 421.655 641.97 422.306 643.58C423.36 646.257 427.269 646.257 428.664 643.702C429.586 641.901 429.788 641.854 430.102 643.285C430.236 644.284 430.685 645.168 431.224 645.302C431.673 645.413 431.876 644.979 431.719 644.457C431.584 643.844 431.854 643.524 432.393 643.658C432.932 643.791 433.292 643.493 433.135 642.971C432.978 642.449 434.101 642.147 435.719 642.161C440.437 642.361 446.569 644.166 446.299 645.259C446.187 645.715 446.591 646.008 447.198 645.868C447.827 645.637 450.635 645.848 453.466 646.355C456.206 646.839 458.857 646.914 459.239 646.526C460.341 645.542 468.136 646.792 469.775 648.26C470.696 649.165 471.505 649.364 472.022 648.816C472.404 648.427 474.179 648.576 475.863 649.089C477.526 649.693 480.985 650.355 483.524 650.5C487.815 650.884 489.477 651.488 494.059 654.554C495.204 655.32 495.406 655.273 494.665 654.414C493.924 653.554 494.464 653.301 496.508 653.516C498.17 653.734 499.024 654.138 498.642 654.527C498.26 654.916 498.754 655.231 499.742 655.089C505.337 654.829 515.132 655.318 517.423 656.077C518.928 656.546 522.028 657.119 524.387 657.219C526.724 657.41 530.7 657.91 533.149 658.419C544.942 660.851 561.566 663.801 563.094 663.792C564.06 663.741 569.811 664.776 575.899 665.991C581.964 667.298 589.243 668.71 592.028 669.012C594.792 669.406 598.274 669.977 599.621 670.31C601.261 670.619 602.992 670.177 604.138 669.01C605.149 668.004 606.633 667.404 607.351 667.582C608.07 667.76 608.452 667.371 608.318 666.758C608.094 666.123 607.33 665.74 606.544 665.836C605.645 666 605.331 665.343 605.668 663.977C606.096 662.246 606.703 662.106 609.915 662.611C612.004 663.03 613.307 663.546 612.903 664.026C611.914 664.941 613.643 666.045 615.935 666.032C617.665 665.976 618.586 664.561 617.059 664.183C615.441 663.784 618.026 661.427 620.318 661.027C623.059 660.738 624.072 658.186 621.825 657.63C620.927 657.408 619.624 656.506 618.996 655.578C617.963 654.356 617.986 653.879 619.132 653.099C620.255 652.41 620.188 652.297 619.065 652.599C617.941 652.901 617.829 652.584 618.706 650.964C619.403 649.687 619.381 648.232 618.731 647.008C617.765 645.126 617.788 645.035 619.136 645.369C620.034 645.591 620.843 645.018 621.136 643.834C621.384 642.832 621.182 642.105 620.643 642.359C620.126 642.521 619.542 642.183 619.295 641.639C619.161 641.026 618.397 640.644 617.588 640.83C616.307 640.997 615.949 639.749 616.826 637.743C616.916 637.378 616.444 636.972 615.725 636.794C615.007 636.616 614.49 636.006 614.603 635.55C615.053 633.729 612.224 630.13 610.539 630.39C609.371 630.488 609.124 630.33 609.753 629.713C610.27 629.164 610.113 628.642 609.304 628.442C608.496 628.242 607.709 628.724 607.484 629.635C607.146 631.001 607.056 630.979 605.867 629.235C604.205 626.698 598.297 625.141 597.106 626.876C595.802 628.68 593.016 627.604 592.366 625.221C592.075 624.086 591.469 623.066 591.019 622.955C590.48 622.822 589.918 623.553 589.671 624.555C589.198 626.467 588.232 626.518 585.042 624.763C583.201 623.728 583.246 623.546 585.066 622.353C586.122 621.551 587.74 621.178 588.549 621.378C589.358 621.578 590.234 621.118 590.414 620.39C590.594 619.661 590.325 619.208 589.898 619.392C589.493 619.485 588.999 619.17 588.775 618.535C588.618 618.013 587.563 617.269 586.574 617.024C584.058 616.402 585.182 615.714 588.552 615.967C589.967 616.027 591.495 616.018 592.012 615.856C592.439 615.671 592.753 616.715 592.797 618.079C592.751 619.421 593.133 620.578 593.492 620.667C595.199 621.089 597.379 620.372 597.649 619.279C597.807 618.641 598.526 618.046 599.222 617.928C600.099 617.855 600.189 617.491 599.583 616.085C599.067 615.087 599.067 613.928 599.562 613.47C600.056 613.012 599.428 612.47 598.08 612.137C596.822 611.826 595.856 611.104 595.969 610.649C596.104 610.103 596.823 609.894 597.631 610.094C599.878 610.649 599.093 608.039 596.757 607.075C593.814 605.864 593.501 604.047 596.175 602.872C599.299 601.422 598.963 598.536 595.616 598.578C594.178 598.609 593.324 598.205 593.482 597.567C593.617 597.021 594.987 596.877 596.425 597.232C597.953 597.61 599.211 597.534 599.346 596.988C599.458 596.532 600.604 596.139 601.953 596.086C603.278 596.124 604.402 595.822 604.581 595.479C604.649 595.206 605.121 594.067 605.684 592.949C606.381 591.286 606.269 590.968 604.719 591.068C603.573 591.075 602.652 590.557 602.405 589.626C601.912 587.765 598.588 586.17 598.475 587.785C598.474 588.558 597.463 588.791 595.756 588.369C594.228 587.991 593.15 587.338 593.285 586.792C593.398 586.336 592.567 585.454 591.399 584.779C590.209 584.195 589.558 583.358 589.917 583.06C590.277 582.762 589.985 582.014 589.244 581.54C587.47 580.232 579.428 578.437 580.393 579.546C580.842 580.043 581.224 581.201 581.38 582.109C581.537 583.404 581.065 583.771 579.987 583.504C578.998 583.26 578.303 581.831 578.012 579.923C577.721 576.856 577.631 576.833 575.878 578.14C574.282 579.581 574.192 579.559 574.485 577.989C574.71 577.078 574.374 576.511 573.857 576.673C573.228 576.904 572.688 577.544 572.643 578.113C572.575 578.773 572.305 579.866 572.035 580.572C571.675 581.643 571.405 581.576 571.024 580.032C570.778 579.101 569.7 578.062 568.801 577.84C567.723 577.573 567.162 576.758 567.387 575.847C567.59 575.027 567.433 574.505 567.073 574.803C566.646 574.987 565.905 574.514 565.366 573.608C564.76 572.588 563.502 571.891 562.064 571.922C560.829 571.906 559.122 571.484 558.403 570.92C555.82 569.025 549.508 567.175 549.26 568.177C549.125 568.723 548.788 568.93 548.474 568.659C548.092 568.275 546.969 568.19 545.89 568.31C544.722 568.408 542.566 567.488 540.567 565.931C536.727 562.952 528.999 561.428 525.426 562.768C524.258 563.252 522.572 563.512 521.674 563.29C520.775 563.068 519.921 563.436 519.786 563.983C519.494 564.78 519.247 564.623 518.663 563.512C518.214 562.628 517.339 561.155 516.62 560.204C515.543 558.778 515.363 558.734 515.587 560.142C515.631 561.12 514.957 561.919 513.631 562.268C512.418 562.548 511.587 562.439 511.767 562.097C511.947 561.755 511.925 560.3 511.701 558.892C511.387 557.074 511.163 556.826 510.893 557.919ZM492.559 559.185C491.773 559.667 491.301 559.647 491.436 559.1C491.751 557.825 493.099 556.999 493.571 557.792C493.683 558.11 493.233 558.772 492.559 559.185ZM560.826 576.545C560.107 577.526 560.309 577.866 561.5 577.677C562.578 577.558 562.803 577.806 562.196 578.719C561.768 579.29 560.892 579.75 560.173 579.572C559.454 579.395 558.825 579.626 558.69 580.172C558.577 580.627 557.836 580.927 557.027 580.727C556.039 580.483 555.882 579.961 556.489 579.048C556.961 578.295 557.568 576.996 557.816 575.994C558.086 574.901 558.873 574.419 560.041 574.708C561.299 575.019 561.546 575.563 560.826 576.545ZM588.12 582.616C587.738 583.004 586.817 583.26 586.098 583.082C585.379 582.904 584.683 582.249 584.526 581.727C584.302 581.092 585.2 580.927 586.548 581.261C587.896 581.594 588.615 582.158 588.12 582.616ZM369.883 531.273C369.209 531.3 367.951 530.989 367.187 530.607C366.356 530.111 366.941 530.063 368.378 530.418C369.906 530.796 370.49 531.133 369.883 531.273ZM568.777 581.796C568.642 582.342 568.26 582.345 567.788 581.938C567.406 581.554 567.137 580.714 567.25 580.259C567.385 579.712 567.857 579.732 568.238 580.117C568.71 580.523 568.889 581.341 568.777 581.796ZM375.902 535.854C375.991 536.649 375.542 536.924 374.89 536.473C374.306 536.136 373.768 535.229 373.746 534.548C373.656 533.752 374.106 533.477 374.757 533.928C375.341 534.265 375.88 535.172 375.902 535.854ZM564.754 583.797C563.316 584.601 561.99 584.95 561.811 584.519C561.541 584.066 562.216 583.266 563.384 582.782C566.485 581.423 567.474 582.054 564.754 583.797ZM578.615 585.968C578.772 586.49 578.277 586.947 577.491 587.043C576.592 587.207 576.39 586.867 576.975 586.045C577.874 584.721 578.256 584.719 578.615 585.968ZM563.224 587.671C562.887 587.878 562.056 587.769 561.495 587.34C560.843 586.889 561.18 586.683 562.169 586.927C563.18 587.08 563.651 587.487 563.224 587.671ZM598.268 596.335C597.931 596.541 597.1 596.432 596.538 596.004C595.887 595.553 596.224 595.346 597.212 595.59C598.223 595.744 598.695 596.15 598.268 596.335ZM217.707 505.83C216.246 506.725 215.303 505.525 216.539 504.381C216.944 503.902 217.708 503.897 218.179 504.304C218.629 504.801 218.493 505.348 217.707 505.83ZM206.003 502.646C205.891 503.102 205.419 503.468 204.88 503.335C204.43 503.224 204.094 502.658 204.206 502.202C204.341 501.656 204.881 501.403 205.33 501.514C205.869 501.647 206.138 502.1 206.003 502.646ZM550.149 587.725C550.036 588.18 549.564 588.547 549.115 588.435C548.576 588.302 548.059 587.691 547.902 587.169C547.768 586.556 548.217 586.281 548.936 586.458C549.745 586.658 550.284 587.178 550.149 587.725ZM415.247 566.841C413.562 567.488 404.688 565.584 405.565 564.738C405.835 564.418 408.553 564.607 411.451 565.227C414.708 565.935 416.191 566.495 415.247 566.841ZM407.72 567.977C407.877 568.499 407.675 568.932 407.135 568.798C406.686 568.687 406.08 568.054 405.923 567.532C405.788 566.919 405.968 566.577 406.507 566.71C406.957 566.821 407.586 567.363 407.72 567.977ZM589.047 614.35C588.71 614.556 587.879 614.447 587.317 614.019C586.666 613.568 587.003 613.361 587.991 613.606C589.002 613.759 589.474 614.165 589.047 614.35ZM393.318 570.311C393.205 570.767 392.756 571.042 392.216 570.909C391.767 570.798 391.475 570.049 391.678 569.229C391.858 568.501 392.398 568.248 392.779 568.632C393.251 569.038 393.453 569.765 393.318 570.311ZM411.514 573.843C412.412 574.065 412.165 574.294 410.862 574.552C409.177 574.812 409.132 574.994 410.48 575.327C412.254 575.862 412.163 577.386 410.299 577.602C408.636 577.77 403.809 572.228 405.494 571.968C406.19 571.851 407.561 572.093 408.504 572.519C409.425 573.037 410.817 573.574 411.514 573.843ZM421.443 576.104C421.128 577.38 419.308 577.799 418.32 576.782C417.691 576.24 417.893 575.807 418.837 575.46C420.702 574.858 421.691 575.103 421.443 576.104ZM401.876 572.33C401.494 572.719 400.753 573.019 400.214 572.886C399.764 572.775 399.517 572.23 399.63 571.775C399.765 571.229 400.484 571.02 401.293 571.22C402.012 571.397 402.281 571.851 401.876 572.33ZM426.722 577.893C426.654 578.166 426.182 578.532 425.575 578.672C425.059 578.835 424.654 578.541 424.767 578.086C424.902 577.539 425.464 577.195 425.913 577.306C426.452 577.44 426.767 577.711 426.722 577.893ZM613.031 634.195C612.918 634.651 612.446 635.017 611.907 634.884C611.458 634.773 611.121 634.206 611.234 633.751C611.369 633.204 611.908 632.951 612.357 633.062C612.897 633.196 613.166 633.649 613.031 634.195ZM614.691 639.051C614.376 640.326 614.106 640.259 613.253 639.082C612.692 638.267 612.22 637.474 612.265 637.292C612.31 637.11 612.984 637.083 613.703 637.261C614.422 637.438 614.893 638.231 614.691 639.051ZM170.959 537.955C170.419 538.594 169.543 539.054 168.824 538.876C168.105 538.699 167.724 537.928 167.904 537.199C168.084 536.471 169.05 536.033 170.039 536.278C171.207 536.566 171.544 537.133 170.959 537.955ZM570.467 656.724C569.68 657.206 569.208 657.186 569.344 656.64C569.659 655.365 571.007 654.538 571.479 655.331C571.591 655.649 571.141 656.311 570.467 656.724ZM176.08 583.192C176.237 583.714 175.765 584.081 175.046 583.903C174.237 583.703 173.721 583.092 173.833 582.637C173.969 582.09 174.418 581.815 174.867 581.926C175.406 582.059 175.945 582.579 176.08 583.192ZM336.761 626.298C337.367 627.704 337.277 628.068 335.794 629.441C334.895 630.378 334.445 630.267 333.278 628.432C331.325 625.534 331.888 623.643 334.426 624.561C335.482 624.918 336.537 625.662 336.761 626.298ZM329.505 625.18C329.213 625.591 328.427 625.687 327.708 625.509C326.989 625.331 326.338 624.881 326.271 624.381C326.091 623.95 326.877 623.854 328.046 624.143C329.214 624.432 329.865 624.883 329.505 625.18ZM411.768 644.937C411.431 645.144 410.6 645.035 410.038 644.606C409.387 644.155 409.724 643.949 410.712 644.193C411.723 644.346 412.195 644.753 411.768 644.937ZM279.544 615.922C278.801 618.927 277.161 619.778 277.881 616.864C278.331 615.042 279.366 613.558 280.085 613.736C280.085 613.736 279.927 614.76 279.544 615.922ZM210.354 601.523C207.501 601.88 205.659 601.232 205.57 599.664C205.368 598.551 205.863 598.48 207.817 599.446C209.703 600.299 210.467 600.294 210.692 599.384C210.94 598.382 211.12 598.426 211.568 599.697C211.95 600.854 211.635 601.356 210.354 601.523ZM257.057 612.392C256.877 613.121 256.09 613.603 255.281 613.403C254.023 613.092 254.091 612.818 255.26 611.948C256.069 611.375 256.855 610.893 257.035 610.937C257.215 610.981 257.237 611.663 257.057 612.392ZM263.28 613.061C262.943 613.267 262.111 613.158 261.55 612.73C260.899 612.279 261.236 612.072 262.224 612.316C263.235 612.47 263.707 612.876 263.28 613.061ZM303.219 626.22C303.106 626.675 302.634 627.042 302.095 626.909C301.646 626.797 301.309 626.231 301.422 625.776C301.557 625.229 302.096 624.976 302.545 625.087C303.084 625.22 303.354 625.673 303.219 626.22ZM306.789 629.132C306.317 629.499 306.497 629.93 306.946 630.041C307.485 630.174 307.822 630.74 307.687 631.287C307.327 632.744 304.407 631.056 304.7 629.485C305.105 627.459 305.937 626.795 306.768 627.677C307.149 628.061 307.171 628.743 306.789 629.132ZM363.084 642.469C362.275 643.042 361.376 643.207 360.994 642.822C360.006 641.805 361.445 640.614 363.152 641.036C364.32 641.325 364.253 641.598 363.084 642.469ZM283.673 625.447C283.694 628.061 283.919 627.924 280.122 627.468C277.741 627.073 277 626.6 277.135 625.28C277.361 623.596 278.642 623.43 279.18 625.109C279.696 626.88 281.179 626.666 281.651 624.754C282.259 622.295 283.652 622.832 283.673 625.447ZM274.619 625.818C275.45 626.7 275.202 626.928 273.54 627.097C271.113 627.271 270.26 626.48 271.519 625.245C272.53 624.238 273.182 624.303 274.619 625.818ZM268.89 625.078C268.553 625.285 267.722 625.176 267.16 624.747C266.509 624.296 266.846 624.09 267.835 624.334C268.845 624.487 269.317 624.894 268.89 625.078Z" fill="#99F6E4"/>
<path d="M183.646 507.46C184.141 507.776 185.219 508.042 185.893 508.015C186.5 507.875 186.095 507.582 184.837 507.271C183.579 506.96 183.085 507.031 183.646 507.46Z" fill="#99F6E4"/>
<path d="M137.339 557.089C136.485 557.458 136.282 557.891 136.731 558.389C137.203 558.795 137.967 558.791 138.371 558.311C139.495 557.236 139.001 556.534 137.339 557.089Z" fill="#99F6E4"/>
<path d="M238.726 609.407C238.613 609.862 239.017 610.155 239.534 609.993C240.141 609.853 240.613 609.486 240.68 609.213C240.725 609.031 240.411 608.76 239.872 608.627C239.422 608.516 238.861 608.86 238.726 609.407Z" fill="#99F6E4"/>
<path d="M182.272 598.64C182.002 599.732 182.721 600.297 184.9 600.739C186.809 601.114 187.214 601.021 186.113 600.459C185.192 599.941 184.002 598.97 183.576 598.382C182.857 597.431 182.543 597.547 182.272 598.64Z" fill="#99F6E4"/>
<path d="M235.826 611.492C235.983 612.014 236.5 612.625 237.039 612.758C237.488 612.87 237.96 612.503 238.073 612.048C238.208 611.501 237.669 610.981 236.86 610.781C236.141 610.604 235.692 610.879 235.826 611.492Z" fill="#99F6E4"/>
<path d="M238.993 612.952C238.97 613.816 239.307 614.769 239.891 615.106C240.452 615.535 240.767 615.033 240.79 613.783C240.814 611.372 239.084 610.655 238.993 612.952Z" fill="#99F6E4"/>
<path d="M248.496 615.011C248.046 615.673 248.315 616.513 249.326 617.052C250.741 617.885 250.876 617.725 250.202 616.206C249.776 615.231 249.44 614.278 249.395 614.074C249.35 613.869 248.945 614.349 248.496 615.011Z" fill="#99F6E4"/>
<path d="M335.745 637.353C335.339 638.993 335.743 639.672 337.495 640.299C339.337 640.948 339.787 640.672 339.945 638.875C340.081 637.556 339.474 636.536 338.262 636.043C336.712 635.37 336.172 635.623 335.745 637.353Z" fill="#99F6E4"/>
<path d="M325.23 637.46C325.117 637.915 325.454 638.482 325.993 638.615C326.443 638.726 326.735 638.315 326.578 637.793C326.443 637.18 326.084 636.705 325.815 636.638C325.635 636.594 325.365 636.914 325.23 637.46Z" fill="#99F6E4"/>
<path d="M331.52 639.015C331.407 639.47 331.744 640.037 332.283 640.17C332.733 640.281 333.025 639.87 332.868 639.348C332.733 638.735 332.374 638.26 332.105 638.193C331.925 638.149 331.655 638.468 331.52 639.015Z" fill="#99F6E4"/>
<path d="M255.635 625.473C255.162 627 255.05 627.068 255.028 625.613C255.051 624.749 254.602 623.865 254.063 623.732C253.613 623.621 253.276 624.214 253.343 625.1C253.41 625.987 253.477 626.873 253.432 627.055C253.207 627.966 261.451 629.327 262.238 628.459C262.755 627.91 262.688 627.797 261.879 627.984C261.25 628.215 260.621 627.673 260.419 626.56C260.106 623.97 256.31 623.128 255.635 625.473Z" fill="#99F6E4"/>
<path d="M104.683 40.2844C105.524 41.8271 105.705 43.3635 105.072 43.7537C104.438 44.1438 104.673 45.2352 105.647 46.284C108.567 49.4305 107.034 51.1984 103.36 49.1341C99.7783 47.2192 98.0488 48.4902 100.839 50.8928C101.971 51.8441 101.746 52.1885 100.165 51.9261C98.9126 51.6669 96.1688 52.5323 94.2018 53.9496C92.0635 55.2663 90.0324 55.6928 89.4805 54.7965C88.3766 53.0038 81.6402 59.6243 81.5026 62.5936C81.5129 64.0294 80.6418 64.5659 78.7971 64.0535C75.371 63.2787 72.4768 66.9152 75.0037 69.0678C75.9645 69.9185 75.4765 70.0129 73.8566 69.1561C72.2496 68.4974 68.9922 69.0609 65.97 70.7159C61.4303 73.0993 60.9015 73.8369 62.1486 76.5716C63.0277 78.7088 62.7877 80.0928 61.1246 81.1169C59.4615 82.1409 59.1423 83.5737 59.9958 85.3145C61.0461 87.5523 60.2821 87.1986 56.7817 83.9972C53.2812 80.7958 52.3461 80.3414 52.8036 82.3261C53.2739 84.5089 53.0363 84.6552 51.2069 83.1032C49.6406 81.8013 49.403 81.9476 50.231 83.2921C50.8749 84.3378 51.0028 86.3194 50.4205 87.5021C49.6389 89.4257 48.571 89.4652 45.7528 87.9039C43.7114 86.8946 42.4595 86.6353 43.0114 87.5317C43.5634 88.428 42.4138 89.754 39.9332 90.8694C36.8062 92.1768 36.3438 92.6676 38.1757 92.9818C40.1787 93.3967 40.1251 93.8417 37.4069 95.1035C35.1767 96.2708 34.4487 97.7492 34.8654 100.377C35.2821 103.005 34.9909 103.596 33.9255 102.398C32.86 101.2 32.3312 101.938 32.0479 105.203C31.4023 111.781 27.9201 112.689 27.5107 106.348C27.3955 104.565 27.0403 104.165 26.0108 104.799C25.2981 105.238 25.0325 106.226 25.5844 107.122C26.0443 107.869 26.1083 108.86 25.6332 109.153C25.2372 109.396 24.5269 108.598 24.1997 107.357C23.847 105.72 23.6886 105.817 23.5533 107.549C23.4949 110.469 18.0488 117.944 17.2209 116.599C16.8529 116.002 16.5129 114.563 16.4234 113.176C16.3082 111.392 16.0323 110.944 15.3987 111.334C14.8443 111.675 14.6707 112.813 14.8931 113.706C15.1283 114.797 14.6659 115.288 13.9147 115.132C12.9004 114.727 13.11 115.422 14.3467 116.721C15.4122 117.919 16.1737 119.51 16.0665 120.4C15.8801 121.339 15.7089 121.239 15.3817 119.998C15.0546 118.757 14.4362 118.108 14.0403 118.352C13.5651 118.644 13.6291 119.635 14.181 120.531C14.733 121.428 14.429 121.821 13.4147 121.415C12.4923 121.159 11.2788 121.494 10.5789 122.131C10.0501 122.869 8.89018 122.759 8.02146 122.058C7.32392 121.457 6.23041 121.1 5.75524 121.393C5.20088 121.734 5.83201 122.582 7.29349 123.536C9.18932 124.841 9.3861 125.338 8.19817 126.07C5.98072 127.435 2.42421 125.917 2.69223 123.691C2.79944 122.801 1.16436 122.984 -0.907501 124.053C-2.97936 125.123 -5.68236 125.345 -6.80146 124.592C-9.7372 122.485 -28.3072 133.302 -30.9279 138.625C-32.2254 141.484 -33.4798 142.462 -35.2324 142.099C-36.4843 141.84 -38.3314 142.565 -39.3225 143.794C-40.3929 145.071 -41.5272 145.357 -42.5799 144.357C-43.6454 143.159 -43.9622 143.354 -43.7014 144.842C-43.2183 147.223 -54.3104 156.526 -55.5063 154.584C-56.5182 152.94 -58.4158 159.26 -57.8279 161.988C-57.2528 164.518 -58.3895 166.043 -59.427 164.003C-60.9372 161.018 -61.9771 160.216 -61.4148 162.549C-60.8525 164.881 -61.1693 165.076 -63.5531 163.865C-65.9241 162.853 -66.0033 162.902 -64.1738 164.454C-62.5948 165.954 -62.582 166.152 -64.465 165.045C-67.1912 163.633 -71.1637 165.873 -70.0879 168.507C-69.6815 169.699 -70.0647 170.141 -71.3166 169.882C-73.846 168.967 -76.3954 171.567 -77.4986 176.161C-78.2418 178.679 -79.5626 179.905 -82.4903 180.471C-84.6798 180.995 -86.9356 181.766 -87.3188 182.208C-87.8732 182.55 -88.6243 182.394 -88.9923 181.796C-89.8202 180.452 -103.179 189.09 -103.539 191.166C-103.567 192.007 -105.322 192.882 -107.194 193.211C-110.135 193.579 -110.73 194.564 -110.883 198.573C-110.954 201.295 -110.55 203.725 -109.945 204.176C-108.575 204.981 -108.084 210.036 -109.272 210.767C-109.747 211.06 -110.787 210.258 -111.523 209.063C-112.259 207.868 -112.269 206.432 -111.477 205.944C-110.302 205.014 -110.302 205.014 -112.568 204.349C-113.912 203.941 -115.601 204.569 -116.355 205.651C-117.108 206.733 -118.401 207.117 -119.27 206.416C-120.059 205.665 -121.273 206.001 -121.855 207.183C-123.27 209.497 -130.507 216.014 -134.15 218.257C-135.747 219.034 -137.321 221.445 -137.852 223.421C-138.304 225.347 -138.965 226.579 -139.333 225.981C-139.701 225.384 -139.992 225.975 -139.995 227.213C-139.997 228.451 -141.438 230.368 -143.351 231.34C-147.549 233.925 -150.765 240.232 -148.539 241.54C-147.512 242.144 -146.641 241.607 -146.176 239.879C-145.87 238.248 -145.249 237.66 -144.789 238.407C-144.329 239.153 -144.439 241.281 -145.141 243.156C-145.764 244.982 -146.045 247.009 -145.585 247.756C-145.125 248.503 -145.47 249.54 -146.42 250.125C-147.608 250.856 -147.465 251.798 -146.136 253.247C-145.163 254.295 -144.874 254.942 -145.546 254.737C-146.218 254.533 -146.588 255.173 -146.353 256.265C-146.131 257.158 -145.196 257.612 -144.325 257.076C-143.374 256.491 -142.294 256.649 -141.742 257.546C-141.282 258.292 -140.426 258.796 -139.951 258.503C-139.555 258.259 -139.856 257.415 -140.725 256.713C-141.857 255.762 -141.54 255.567 -139.695 256.079C-138.272 256.439 -137.23 256.004 -137.189 255.36C-137.228 254.766 -136.806 254.918 -136.254 255.815C-135.61 256.86 -134.437 257.168 -133.566 256.632C-132.695 256.096 -131.614 256.254 -131.062 257.151C-130.602 257.898 -130.472 258.641 -130.789 258.836C-132.728 259.412 -133.218 260.745 -132.022 262.687C-131.287 263.882 -131.567 265.909 -132.467 267.287C-133.445 268.713 -133.83 270.393 -133.279 271.289C-132.727 272.186 -131.909 272.094 -131.314 271.11C-130.415 269.732 -129.98 270.083 -128.432 273.662C-126.201 278.881 -128.65 290.691 -131.519 288.337C-132.48 287.486 -133.376 287.626 -133.576 288.367C-133.844 290.593 -134.868 288.751 -135.152 285.629C-135.293 283.45 -134.976 283.255 -132.896 284.858C-131.514 285.862 -130.855 285.868 -131.407 284.971C-131.867 284.224 -133.709 282.474 -135.355 281.221C-138.29 279.114 -138.29 279.114 -137.784 283.129C-137.485 285.211 -137.858 287.089 -138.688 286.982C-140.165 287.068 -137.747 291.348 -135.811 292.01C-134.045 292.571 -131.562 296.605 -132.591 297.238C-132.987 297.482 -133.935 296.83 -134.579 295.784C-135.315 294.589 -137.119 293.433 -138.792 293.022C-142.389 292.146 -144.89 296.777 -142.682 300.362C-141.578 302.155 -141.078 302.258 -140.718 300.182C-140.253 298.454 -139.619 298.064 -138.659 298.914C-137.527 299.866 -137.144 299.424 -137.088 297.741C-137.006 296.454 -136.398 295.668 -135.713 296.071C-135.028 296.473 -134.714 297.516 -135.005 298.107C-135.284 298.897 -134.931 300.534 -134.195 301.729C-133.183 303.372 -133.541 304.21 -135.559 304.835C-138.553 305.649 -138.369 305.947 -133.652 313.963C-131.34 317.895 -130.55 318.645 -129.467 317.566C-128.78 316.731 -127.528 316.991 -126.817 317.789C-125.844 318.838 -125.938 319.926 -126.968 320.56C-127.997 321.194 -128.105 322.085 -127.065 322.886C-126.275 323.636 -124.891 323.402 -124.216 322.369C-122.842 320.698 -122.671 320.799 -121.848 324.619C-120.697 329.679 -118.988 331.923 -114.813 334.091C-112.087 335.503 -111.64 336.052 -111.841 338.03C-112.015 339.167 -112.664 340.597 -113.377 341.036C-114.01 341.426 -114.332 344.097 -114.153 346.871C-113.894 349.596 -114.165 353.059 -114.721 354.638C-115.661 356.659 -115.373 357.306 -113.858 357.815C-112.263 358.276 -111.803 359.023 -111.688 360.806C-111.573 362.589 -112.048 362.882 -113.826 362.123C-115.697 361.214 -115.592 361.561 -113.448 364.156C-111.12 367.049 -111.108 367.248 -113.491 366.037C-114.927 365.479 -115.666 365.522 -115.114 366.418C-114.654 367.165 -115.09 368.052 -116.238 368.14C-117.385 368.228 -117.821 369.115 -117.27 370.012C-116.718 370.908 -115.862 371.411 -115.386 371.119C-114.911 370.826 -113.846 372.024 -113.072 373.814C-111.916 376.399 -111.232 376.802 -110.057 375.872C-109.106 375.287 -107.97 373.763 -107.558 372.479C-106.989 371.098 -105.775 370.763 -103.813 371.821C-101.772 372.831 -101.363 372.785 -102.283 371.291C-103.111 369.947 -102.543 369.803 -100.239 371.063C-98.4478 372.02 -96.1712 374.121 -95.1593 375.764C-93.5955 378.304 -93.6619 378.551 -95.9537 377.489C-98.2455 376.428 -98.3247 376.477 -96.2857 378.724C-94.8778 380.124 -94.0243 381.864 -94.1187 382.953C-94.3179 383.693 -92.4581 383.166 -90.0158 381.456C-86.544 379.113 -85.0673 379.027 -82.8163 380.732C-81.0917 381.936 -79.7606 382.147 -79.2574 381.013C-78.675 379.83 -78.2535 379.982 -77.6376 381.87C-76.3393 385.397 -72.0756 382.565 -71.4731 377.868C-70.9779 374.06 -70.8067 374.161 -67.863 378.941C-65.0113 383.572 -64.9985 383.77 -67.8167 382.209C-69.2782 381.255 -70.6757 381.291 -70.7829 382.181C-70.9693 383.12 -71.4725 384.254 -72.106 384.644C-73.4523 385.473 -70.787 391.043 -69.4279 390.413C-67.0137 389.544 -58.379 382.991 -57.4799 381.613C-56.8847 380.628 -55.9496 381.083 -54.2402 383.327C-52.0708 386.318 -51.4908 386.372 -48.3614 383.827C-46.4863 382.261 -44.5473 381.685 -43.9953 382.581C-43.5354 383.328 -41.0291 382.609 -38.4157 381C-35.8943 379.241 -33.2425 378.226 -32.6497 378.479C-32.0442 378.93 -32.6393 379.915 -33.9856 380.744C-36.6783 382.402 -36.7215 384.283 -33.8522 386.637C-32.1939 388.088 -26.7423 384.525 -18.7771 376.53C-14.603 372.311 -12.2887 368.62 -13.2494 367.769C-13.8549 367.318 -14.1949 365.879 -13.9421 364.693C-13.7021 363.309 -14.9948 363.693 -17.8074 366.043C-21.4912 368.93 -21.9791 369.024 -21.1568 366.457C-20.692 364.729 -19.7136 363.302 -19.0673 363.11C-18.5001 362.967 -18.3929 362.077 -19.0368 361.031C-19.5888 360.135 -19.2184 359.495 -18.2297 359.504C-17.3201 359.562 -17.0161 359.169 -17.7137 358.568C-19.7143 356.916 -18.0616 354.456 -15.757 355.715C-14.1371 356.572 -14.0579 356.523 -15.3738 355.273C-16.2425 354.572 -16.7153 353.627 -16.2401 353.334C-15.8441 353.09 -14.909 353.545 -14.2907 354.194C-13.5803 354.993 -13.0899 353.661 -13.1515 351.432C-13.2234 347.768 -13.0114 347.225 -10.7988 348.335C-8.84937 349.195 -8.53259 349 -9.21491 347.36C-10.3036 344.528 -8.77329 343.997 -7.20945 346.537C-6.47353 347.732 -5.17045 348.784 -4.4321 348.741C-3.35139 348.9 -3.07541 349.348 -3.14424 350.833C-3.32027 353.208 0.351396 356.51 0.777805 354.187C0.885013 353.297 2.53289 353.312 4.41593 354.419C6.28617 355.328 6.94532 355.334 5.98461 354.483C5.02389 353.632 4.72233 352.788 5.2767 352.447C5.75187 352.154 6.72537 353.203 7.48689 354.794C9.52105 359.517 11.345 357.157 9.61477 352.042C8.80208 349.658 7.98938 347.274 7.97659 347.075C7.8718 346.728 8.83494 346.341 10.1532 346.353C11.6299 346.268 12.7618 347.219 13.5489 349.207C14.612 351.643 15.1128 351.747 16.7247 349.93C17.8742 348.604 19.1005 348.467 19.7445 349.513C20.2964 350.409 20.4396 351.351 19.9644 351.644C19.5684 351.888 19.6324 352.878 20.1843 353.775C20.7363 354.671 21.5666 354.778 21.8322 353.79C22.269 352.903 23.0201 353.059 23.7561 354.254C24.492 355.449 24.8447 357.086 24.5535 357.677C24.2751 358.467 24.8679 358.72 25.739 358.184C26.7814 357.748 27.3254 355.971 27.1438 354.434C26.9622 352.898 27.427 351.169 28.219 350.681C29.8821 349.657 35.9631 354.566 35.0896 356.34C34.2032 357.916 40.7618 361.295 43.5184 360.628C44.9031 360.393 45.7895 358.817 45.7663 357.183C45.6384 355.202 45.9424 354.808 46.6783 356.003C47.4142 357.199 48.7861 356.766 51.3356 354.166C53.1851 352.203 55.9185 349.902 57.344 349.024C58.7823 348.344 64.3948 343.446 69.8233 338.249C75.3437 333.201 80.693 328.053 81.8681 327.123C86.939 322.764 86.9518 322.963 84.7264 321.655C82.1587 320.145 80.5156 317.654 82.4523 318.316C83.2034 318.472 83.3362 317.978 82.8763 317.231C82.3243 316.335 81.31 315.929 80.6764 316.319C80.0429 316.709 79.8565 317.648 80.3164 318.395C81.7883 320.785 78.3805 324.12 74.1088 324.278C70.1667 324.439 67.0854 322.628 69.2236 321.311C69.6988 321.019 69.5812 320.473 69.0676 320.171C66.4079 318.512 66.3 313.016 68.875 310.812C70.9085 309.148 71.1613 307.962 69.7942 305.919C68.8871 304.623 68.5472 303.184 69.0224 302.892C69.6559 302.502 71.2606 304.398 73.1132 307.584C76.3456 313.011 76.8592 313.313 78.0775 310.502C78.4351 309.664 77.924 308.124 76.8585 306.926C75.2666 305.228 75.3994 304.734 77.4305 304.307C79.3032 303.978 79.6608 303.14 78.8328 301.796C76.993 298.808 77.6522 298.814 83.4725 302.235C86.2906 303.796 89.0832 304.961 89.5584 304.669C90.2711 304.23 89.9952 303.782 88.4545 302.876C87.2562 302.172 85.5724 300.324 84.6524 298.83C83.2726 296.589 83.3262 296.144 84.9461 297.001C86.4739 297.709 86.9363 297.218 86.8339 295.633C86.7188 293.849 86.9564 293.703 87.6923 294.898C88.3362 295.944 88.7554 297.334 88.5562 298.075C88.0225 301.288 90.3144 302.349 92.2047 299.743C93.4334 298.368 95.3469 297.396 96.6116 297.853C98.5354 298.317 98.7194 298.616 97.4371 300.435C96.5507 302.011 96.7322 303.548 98.0993 305.591C101.109 310.124 101.848 310.081 106.829 304.336C109.445 301.489 113.777 297.173 116.59 294.822C119.957 292.131 121.676 289.424 121.747 286.702C122.023 280.763 125.722 276.837 128.841 279.243C131.092 280.947 131.251 280.85 129.899 277.768C128.074 273.74 126.388 273.13 124.84 275.938C124.258 277.121 121.537 279.62 118.87 281.674C116.111 283.579 110.619 287.786 106.539 290.916C102.367 293.897 99.833 295.457 100.837 294.427C101.828 293.199 102.188 291.123 101.69 289.781C100.693 287.099 102.555 285.334 104.027 287.724C104.487 288.471 105.067 288.526 105.187 287.834C105.386 287.093 104.507 284.956 103.495 283.313L101.564 280.175L105.317 282.191C109.412 284.408 115.058 282.579 113.219 279.592C112.483 278.396 112.799 278.201 114.327 278.909C117.304 280.373 118.259 277.312 115.668 274.169C112.985 270.876 113.519 267.663 116.493 270.364C118.941 272.565 120.813 272.236 119.012 269.843C118.302 269.044 117.962 267.605 118.332 266.965C118.69 266.127 119.216 266.627 119.819 268.316C120.409 269.807 121.212 270.755 121.687 270.462C122.162 270.17 121.914 268.88 121.086 267.536C120.074 265.892 120.182 265.002 121.658 264.917C122.805 264.829 123.572 263.945 123.349 263.052C122.669 260.174 124.33 260.387 126.262 263.524C127.274 265.168 128.498 266.268 128.894 266.025C129.369 265.732 128.858 264.192 127.846 262.549C126.834 260.906 126.402 259.318 126.798 259.074C127.273 258.781 128.142 259.482 128.878 260.678C129.614 261.873 130.996 262.876 131.985 262.885C134.463 263.007 134.476 263.205 132.743 259.328C131.575 256.544 131.062 256.242 130.163 257.62C129.647 258.556 128.908 258.598 128.765 257.656C128.543 256.763 128.887 255.727 129.521 255.337C130.155 254.946 130.17 253.907 129.71 253.16C127.962 250.322 131.879 249.764 136.317 252.182C138.792 253.542 141.309 254.259 141.943 253.869C142.972 253.235 143.169 253.732 143.006 256.305C142.883 258.234 140.967 260.444 137.971 262.496C135.199 264.202 133.257 266.016 133.625 266.614C134.085 267.361 136.42 266.541 138.955 264.98C141.964 263.127 144.245 262.752 145.72 263.905C147.615 265.21 148.962 264.381 155.647 256.968C167.656 244.01 167.735 243.961 166.355 241.72C164.515 238.733 162.196 238.513 158.908 241.156C154.749 244.335 153.822 246.554 155.677 248.502C156.479 249.45 156.99 250.99 156.633 251.828C155.56 254.343 155.138 254.191 154.696 251.166C154.384 248.886 153.871 248.584 151.827 248.813L149.203 248.986L148.975 244.181C148.681 239.624 148.826 239.328 151.077 241.033C154.803 243.89 157.13 240.396 155.003 235.524C153.468 232.143 153.534 231.897 155.376 233.647C156.613 234.945 157.903 235.799 158.378 235.507C158.774 235.263 158.394 234.467 157.696 233.866C156.907 233.116 156.697 232.421 157.172 232.129C157.647 231.836 157.517 231.092 156.819 230.492C156.122 229.891 156.441 228.458 157.419 227.032C160.459 223.099 166.2 220.183 167.304 221.975C167.764 222.722 168.343 222.777 168.543 222.036C168.65 221.146 170.566 218.936 172.837 217.126C175.029 215.364 176.694 213.102 176.472 212.209C175.989 209.828 182.076 204.637 184.751 205.256C186.346 205.717 187.058 205.278 186.731 204.037C186.509 203.144 187.738 201.769 189.334 200.992C191.023 200.364 193.848 198.212 195.527 196.149C198.526 192.86 200.214 192.232 206.489 192.489C208.058 192.553 208.124 192.306 206.688 191.748C205.252 191.19 205.28 190.349 206.747 188.828C207.988 187.651 208.964 187.462 209.187 188.355C209.409 189.249 210.068 189.255 210.492 188.17C213.522 182.802 219.918 174.742 222.161 173.773C223.599 173.093 226.108 171.137 227.628 169.17C229.24 167.354 232.185 164.51 234.232 163.044C244.067 155.957 257.377 145.289 258.276 143.911C258.792 142.975 263.413 139.306 268.443 135.59C273.565 132.024 279.533 127.525 281.541 125.465C283.641 123.553 286.374 121.252 287.562 120.521C288.895 119.493 289.414 117.32 288.747 114.64C288.184 112.308 288.373 110.131 289.007 109.741C289.64 109.351 289.418 108.458 288.628 107.708C287.76 107.007 286.863 107.147 286.505 107.985C286.161 109.021 285.213 108.369 283.833 106.128C282.085 103.29 282.284 102.549 284.78 100.394C286.51 99.1229 287.881 98.6902 288.196 99.7328C288.666 101.916 290.973 101.937 292.322 99.8705C293.287 98.2458 292.199 95.4136 290.852 96.2426C289.427 97.1204 288.238 91.4652 289.14 88.8497C290.438 85.9903 288.087 81.463 286.107 82.6821C285.315 83.1698 283.496 83.0537 282.047 82.2975C280.018 81.4863 279.479 80.7882 279.259 78.6572C279.131 76.6757 278.96 76.575 278.641 78.0078C278.322 79.4406 277.887 79.0899 276.536 76.0077C275.472 73.5718 273.776 71.526 271.972 70.3704C269.22 68.5623 269.128 68.4129 270.316 67.6814C271.108 67.1937 270.927 65.6572 269.731 63.7152C268.719 62.0719 267.758 61.2212 267.73 62.0626C267.61 62.7546 266.872 62.7972 266.095 62.2453C265.305 61.4953 264.409 61.6354 264.143 62.6231C263.574 64.004 261.915 62.5527 260.116 58.9217C259.748 58.3241 258.997 58.1685 258.364 58.5587C257.73 58.9488 256.716 58.5432 256.256 57.7963C254.416 54.8085 248.568 52.2287 247.865 54.1034C247.283 55.2862 246.953 55.2831 246.613 53.8441C246.286 52.6033 245.589 52.0027 244.876 52.4416C244.163 52.8805 244.253 54.2676 245.173 55.7615C246.553 58.0023 246.473 58.0511 243.747 56.6393C239.823 54.5231 234.504 57.5923 235.802 61.1196C237.113 64.845 234.211 65.808 231.066 63.006C229.579 61.6553 228.038 60.7497 227.642 60.9935C227.167 61.2861 227.678 62.8257 228.69 64.469C230.622 67.6062 230.106 68.542 226.176 68.9012C223.882 69.0777 223.698 68.779 223.401 65.4591C223.102 63.3769 223.633 61.4015 224.346 60.9626C225.059 60.5237 225.049 59.0879 224.313 57.8928C223.577 56.6977 222.892 56.2952 222.851 56.9384C222.718 57.4322 222.059 57.4261 221.19 56.7248C220.493 56.1241 219.003 56.0111 218.132 56.5476C215.915 57.913 215.787 55.9315 218.086 53.2796C218.998 52.0999 219.897 50.7221 220.017 50.0301C220.058 49.3868 221.453 50.5881 223.058 52.4845C224.583 54.4297 226.149 55.7316 226.466 55.5365C227.971 54.61 228.438 51.6438 227.334 49.8511C226.69 48.8054 226.429 47.3177 226.708 46.5282C227.145 45.6411 226.777 45.0436 224.789 43.5892C223.327 42.6348 221.986 40.9884 221.751 39.897C221.516 38.8056 220.514 38.5982 219.326 39.3297C218.217 40.0124 216.807 39.8506 216.347 39.1037C215.795 38.2074 215.982 37.2684 216.694 36.8295C218.674 35.6104 215.187 32.6071 212.68 33.3263C209.528 34.2374 207.238 31.9385 207.47 27.8809C207.651 23.0308 204.112 19.2349 202.169 22.2862C201.349 23.6153 200.373 23.8042 199.729 22.7584C199.177 21.8621 199.826 20.4324 201.093 19.6522C202.439 18.8231 203.101 17.5916 202.549 16.6953C202.089 15.9483 202.316 14.3662 203.057 13.0859C203.889 11.955 204.209 10.5222 203.92 9.8759C203.644 9.42773 202.606 7.38814 201.648 5.29977C200.138 2.31508 199.704 1.96444 198.896 3.49165C198.222 4.52501 197.075 4.61327 195.851 3.5126C193.403 1.31125 189.579 2.01802 191.38 4.41134C192.274 5.50892 191.942 6.74353 190.438 7.67009C189.091 8.49912 187.694 8.53552 187.142 7.63918C186.682 6.89223 185.167 6.38294 183.69 6.46811C182.306 6.70266 180.949 6.09583 180.818 5.35198C180.688 4.60812 179.648 3.80623 178.659 3.79695C176.089 3.52531 169.225 8.16428 171.082 8.87482C171.925 9.17978 173.492 10.4817 174.636 11.6311C176.228 13.3294 176.371 14.2714 175.421 14.8566C174.55 15.393 172.483 13.9874 170.102 11.5391C166.379 7.44446 166.3 7.49323 166.767 10.9137C167.486 14.3861 167.407 14.4349 165.763 11.944C164.844 10.4501 163.988 9.947 163.868 10.639C163.76 11.5292 164.18 12.9193 164.811 13.7669C165.534 14.7639 166.638 16.5565 167.294 17.8004C168.319 19.6419 168.082 19.7882 166.068 17.9374C164.844 16.8368 163 16.3244 162.208 16.812C161.257 17.3972 159.98 16.7416 159.06 15.2477C158.232 13.9032 157.534 13.3026 157.665 14.0465C157.624 14.6897 156.635 14.6804 155.266 13.8754C153.725 12.9698 152.169 13.1038 151.349 14.4328C150.596 15.5149 149.091 16.4415 148.01 16.2828C144.28 15.9013 138.381 18.9155 139.393 20.5588C139.945 21.4551 139.984 22.0496 139.483 21.9459C138.811 21.7416 138.045 22.6255 137.541 23.7595C136.959 24.9423 134.611 25.5639 131.619 25.1397C125.886 24.3433 119.523 29.086 118.946 34.18C118.811 35.9116 118.108 37.7863 117.316 38.274C116.524 38.7617 116.443 40.0481 116.995 40.9445C117.743 42.3377 117.414 42.3346 115.781 41.2796C114.491 40.4259 112.265 39.1178 110.738 38.4103C108.446 37.3492 108.287 37.4467 110.05 39.2455C111.208 40.5931 111.732 42.3309 111.346 44.0106C110.948 45.4921 110.327 46.0804 110.038 45.434C109.75 44.7877 108.053 42.7419 106.29 40.9431C104 38.6442 103.579 38.4917 104.683 40.2844ZM95.2344 58.4646C95.324 59.8517 95.02 60.2449 94.468 59.3486C93.1802 57.2571 93.0266 54.8792 94.2249 55.5836C94.6593 55.9342 95.1576 57.2757 95.2344 58.4646ZM155.962 22.1004C156.67 24.1369 157.183 24.4388 157.674 23.1067C158.177 21.9727 158.598 22.1252 159.293 23.9635C159.7 25.1555 159.71 26.5914 159.077 26.9815C158.443 27.3716 158.336 28.2618 158.888 29.1581C159.348 29.9051 159.253 30.9934 158.54 31.4323C157.669 31.9687 156.972 31.3681 156.277 29.5297C155.686 28.0389 154.544 25.6518 153.532 24.0085C152.428 22.2158 152.339 20.8287 153.368 20.1948C154.477 19.512 155.254 20.0639 155.962 22.1004ZM179.235 6.3273C179.457 7.22055 179.204 8.40639 178.571 8.79652C177.937 9.18665 176.764 8.8786 176.067 8.27795C175.198 7.57668 175.543 6.54023 176.731 5.80873C177.919 5.07724 178.999 5.2359 179.235 6.3273ZM-10.0917 128.473C-10.4621 129.113 -11.5708 129.796 -12.4675 129.936C-13.5355 129.975 -13.2443 129.384 -11.9771 128.603C-10.6308 127.774 -9.89249 127.732 -10.0917 128.473ZM166.771 22.4493C167.323 23.3457 167.098 23.6901 166.347 23.5346C165.675 23.3302 164.543 22.3789 164.083 21.632C163.532 20.7357 163.835 20.3424 164.507 20.5468C165.259 20.7024 166.311 21.7024 166.771 22.4493ZM-1.20838 129.596C-0.234872 130.644 -0.18369 131.437 -1.09322 131.379C-1.83156 131.422 -3.20105 130.617 -4.00337 129.668C-4.97688 128.62 -5.02806 127.827 -4.11853 127.885C-3.38018 127.842 -2.0107 128.647 -1.20838 129.596ZM166.693 28.8848C166.767 31.3114 166.381 32.9911 165.776 32.5398C165.091 32.1373 164.567 30.3996 164.702 28.6681C164.975 23.9673 166.294 23.9796 166.693 28.8848ZM177.455 19.579C178.153 20.1797 178.388 21.2711 178.03 22.1094C177.686 23.1458 177.172 22.8439 176.569 21.155C175.572 18.4722 175.797 18.1277 177.455 19.579ZM170.265 35.7505C170.304 36.345 169.683 36.9333 168.852 36.8265C167.943 36.7684 167.904 36.174 168.776 35.6375C169.555 34.9517 170.306 35.1073 170.265 35.7505ZM201.151 16.7317C201.19 17.3261 200.569 17.9144 199.738 17.8076C198.829 17.7496 198.79 17.1551 199.662 16.6187C200.441 15.9329 201.192 16.0884 201.151 16.7317ZM-130.123 228.345C-129.956 230.921 -131.906 230.061 -132.494 227.333C-132.808 226.29 -132.359 225.601 -131.607 225.757C-130.764 226.062 -130.212 226.958 -130.123 228.345ZM-140.773 234.285C-140.313 235.032 -140.17 235.974 -140.645 236.267C-141.041 236.511 -141.897 236.008 -142.357 235.261C-142.909 234.364 -142.881 233.523 -142.485 233.279C-142.01 232.987 -141.325 233.389 -140.773 234.285ZM162.543 47.5107C163.003 48.2577 163.146 49.1997 162.75 49.4435C162.275 49.7361 161.261 49.3305 160.563 48.7299C159.774 47.9798 159.723 47.1872 160.356 46.7971C161.069 46.3582 161.991 46.6144 162.543 47.5107ZM58.0726 138.42C57.8173 140.843 50.3322 146.07 49.8747 144.086C49.6651 143.391 51.5018 141.229 53.9441 139.52C56.7031 137.615 58.2334 137.084 58.0726 138.42ZM54.9055 146.757C55.603 147.358 55.9838 148.153 55.5086 148.446C55.1126 148.69 54.0191 148.333 53.3216 147.732C52.532 146.982 52.2433 146.336 52.7184 146.043C53.1144 145.799 54.1159 146.007 54.9055 146.757ZM216.509 50.5418C216.548 51.1362 215.927 51.7245 215.097 51.6177C214.187 51.5597 214.149 50.9652 215.02 50.4288C215.799 49.743 216.55 49.8985 216.509 50.5418ZM49.0336 162.941C49.4936 163.688 49.5447 164.48 49.0696 164.773C48.6736 165.017 47.6337 164.215 46.8058 162.87C46.0699 161.675 46.0979 160.834 46.7698 161.038C47.521 161.194 48.4817 162.044 49.0336 162.941ZM63.9527 151.694C64.7446 151.206 64.8622 151.752 64.3846 153.282C63.6822 155.157 63.8662 155.455 65.0541 154.724C66.73 153.898 68.4395 156.142 67.5787 158.114C66.7843 159.84 57.4971 156.287 58.1995 154.412C58.4779 153.623 59.5738 152.742 60.6289 152.504C61.776 152.416 63.2271 151.934 63.9527 151.694ZM72.4801 146.031C73.768 148.122 73.1704 150.344 71.405 149.783C70.4034 149.576 70.0227 148.78 70.1835 147.445C70.5971 144.924 71.4682 144.387 72.4801 146.031ZM56.4651 158.159C56.6875 159.052 56.5931 160.14 56.1179 160.433C55.7219 160.677 54.9452 160.125 54.4853 159.378C53.9333 158.481 54.1197 157.542 54.8325 157.104C55.466 156.713 56.1508 157.116 56.4651 158.159ZM77.6918 143.852C77.9678 144.3 78.1109 145.242 77.9117 145.982C77.7917 146.674 77.2118 146.62 76.7518 145.873C76.1999 144.976 76.1359 143.985 76.5319 143.742C77.007 143.449 77.5078 143.553 77.6918 143.852ZM253.752 57.2777C254.212 58.0246 254.355 58.9667 253.88 59.2592C253.484 59.5031 252.628 59 252.168 58.253C251.616 57.3567 251.644 56.5153 252.04 56.2715C252.515 55.9789 253.2 56.3814 253.752 57.2777ZM260.359 62.6866C261.647 64.7781 261.41 64.9244 259.539 64.0157C258.262 63.3601 257.064 62.6557 256.88 62.3569C256.696 62.0582 257.066 61.418 257.7 61.0279C258.333 60.6378 259.531 61.3421 260.359 62.6866ZM-120.775 315.717C-120.356 317.107 -120.346 318.543 -120.98 318.933C-121.613 319.323 -122.732 318.57 -123.468 317.375C-124.204 316.18 -124.135 314.695 -123.264 314.159C-122.235 313.525 -121.379 314.028 -120.775 315.717ZM254.485 127.29C254.575 128.677 254.271 129.071 253.719 128.174C252.431 126.083 252.277 123.705 253.476 124.409C253.91 124.76 254.408 126.101 254.485 127.29ZM-65.3776 375.35C-64.68 375.951 -64.5369 376.893 -65.1704 377.283C-65.8832 377.722 -66.8975 377.316 -67.3574 376.569C-67.9094 375.673 -67.9606 374.88 -67.5646 374.637C-67.0894 374.344 -66.1671 374.6 -65.3776 375.35ZM80.1553 292.946C82.1431 294.4 82.5111 294.998 83.2166 298.272C83.7661 300.406 83.3701 300.65 80.552 299.089C76.0347 296.72 74.1821 293.534 76.7548 292.568C77.7971 292.132 79.2866 292.245 80.1553 292.946ZM74.5428 297.844C74.8444 298.689 74.4868 299.527 73.8532 299.917C73.2197 300.307 72.3102 300.249 71.6918 299.6C71.0863 299.149 71.4439 298.31 72.4734 297.676C73.5029 297.042 74.4125 297.1 74.5428 297.844ZM146.375 252.376C146.413 252.97 145.793 253.558 144.962 253.452C144.053 253.393 144.014 252.799 144.886 252.263C145.665 251.577 146.416 251.732 146.375 252.376ZM34.0877 329.349C37.1234 334.278 37.1314 336.952 34.1877 332.172C32.3479 329.184 31.2464 326.153 31.88 325.763C31.88 325.763 32.9711 327.358 34.0877 329.349ZM-23.7622 370.74C-25.047 373.798 -26.8941 374.523 -28.7619 372.377C-30.1698 370.977 -29.9578 370.435 -27.6763 370.06C-25.5661 369.585 -25.1165 368.896 -26.0364 367.402C-27.0483 365.758 -26.8899 365.661 -25.1525 367.063C-23.5862 368.365 -23.1927 369.359 -23.7622 370.74ZM16.6168 344.434C17.3527 345.629 17.4423 347.016 16.7295 347.455C15.6208 348.137 15.3448 347.689 15.0329 345.409C14.8513 343.872 14.7618 342.485 14.9201 342.388C15.0785 342.29 15.8809 343.238 16.6168 344.434ZM21.0949 339.822C21.1333 340.416 20.5125 341.004 19.6822 340.898C18.7727 340.84 18.7343 340.245 19.6054 339.709C20.3846 339.023 21.1357 339.178 21.0949 339.822ZM60.0979 322.81C60.5578 323.557 60.701 324.499 60.2258 324.791C59.8299 325.035 58.9739 324.532 58.514 323.785C57.962 322.889 57.9901 322.047 58.386 321.804C58.8612 321.511 59.5459 321.913 60.0979 322.81ZM65.5934 323.753C65.7366 324.695 66.3422 325.146 66.7381 324.902C67.2133 324.609 68.0692 325.112 68.6212 326.009C70.093 328.399 66.4013 328.612 64.7583 326.121C62.6553 322.883 62.3817 321.197 63.8968 321.707C64.5688 321.911 65.3711 322.859 65.5934 323.753ZM114.538 292.377C114.72 293.914 114.375 294.95 113.703 294.746C111.938 294.185 111.416 291.209 112.921 290.283C113.95 289.649 114.226 290.097 114.538 292.377ZM47.5681 339.179C50.6062 342.871 50.5806 342.475 47.7936 345.221C45.9185 346.788 44.9298 346.778 43.4835 344.784C41.6693 342.193 42.2389 340.812 44.5027 342.715C46.8585 344.767 47.4945 343.139 45.5627 340.002C43.0789 335.968 44.53 335.487 47.5681 339.179ZM42.6076 347.796C44.1226 348.306 44.2402 348.851 43.4458 350.577C42.2019 352.991 40.7788 352.631 40.0989 349.753C39.5366 347.421 39.999 346.93 42.6076 347.796ZM38.3414 351.866C38.3798 352.46 37.759 353.048 36.9287 352.942C36.0192 352.883 35.9808 352.289 36.8519 351.753C37.6311 351.067 38.3822 351.222 38.3414 351.866Z" fill="#FDBA74"/>
<path d="M28.0723 102.294C28.9003 103.638 29.9402 104.44 30.3361 104.196C30.8113 103.904 30.7601 103.111 30.3002 102.364C29.7482 101.468 28.7875 100.617 28.0364 100.462C27.3644 100.257 27.3364 101.099 28.0723 102.294Z" fill="#FDBA74"/>
<path d="M205.664 7.56531C206.4 8.76043 207.361 9.61109 207.836 9.31849C208.232 9.07466 207.747 7.9314 206.773 6.88258C205.72 5.88253 204.76 5.03187 204.601 5.1294C204.443 5.22694 204.929 6.3702 205.664 7.56531Z" fill="#FDBA74"/>
<path d="M211.772 19.2573C212.232 20.0042 213.088 20.5073 213.484 20.2635C213.959 19.9709 213.816 19.0289 213.356 18.2819C212.804 17.3856 212.119 16.9831 211.644 17.2757C211.248 17.5195 211.22 18.3609 211.772 19.2573Z" fill="#FDBA74"/>
<path d="M271.616 63.5843C272.866 65.0813 273.55 65.4838 273.144 64.2918C272.658 63.1485 272.858 62.4077 273.622 62.7615C274.294 62.9658 274.426 62.472 273.966 61.725C273.506 60.9781 272.229 60.3225 271.082 60.4107C269.618 60.694 269.735 61.2397 271.616 63.5843Z" fill="#FDBA74"/>
<path d="M198.902 196.131C199.124 197.024 199.742 197.674 200.138 197.43C200.613 197.137 200.549 196.147 200.089 195.4C199.538 194.503 199.011 194.003 198.853 194.101C198.615 194.247 198.587 195.088 198.902 196.131Z" fill="#FDBA74"/>
<path d="M160.825 231.321C161.656 231.428 162.277 230.84 162.238 230.245C162.279 229.602 161.528 229.446 160.749 230.132C159.878 230.669 159.916 231.263 160.825 231.321Z" fill="#FDBA74"/>
<path d="M190.061 213.525C190.376 214.567 191.27 215.665 192.021 215.82C194.129 216.583 193.725 214.153 191.499 212.845C190.301 212.141 189.826 212.433 190.061 213.525Z" fill="#FDBA74"/>
<path d="M169.959 232.496C170.274 233.539 170.682 233.493 171.04 232.655C171.821 230.731 171.415 229.539 170.306 230.222C169.831 230.515 169.645 231.454 169.959 232.496Z" fill="#FDBA74"/>
<path d="M2.24969 356.577C2.70964 357.324 3.2896 357.379 3.4096 356.687C3.6088 355.946 3.46563 355.004 3.18965 354.556C3.00567 354.257 2.50491 354.154 2.02974 354.446C1.63377 354.69 1.69775 355.681 2.24969 356.577Z" fill="#FDBA74"/>
<path d="M2.93742 362.129C3.63496 362.729 4.64927 363.135 5.12444 362.842C5.52042 362.598 5.37724 361.656 4.91729 360.909C4.36535 360.013 3.44303 359.757 2.73027 360.196C2.09671 360.586 2.14789 361.378 2.93742 362.129Z" fill="#FDBA74"/>
<path d="M6.51152 361.37C7.49782 362.617 8.8009 363.669 9.53925 363.626C10.3696 363.733 9.97603 362.739 8.54257 360.943C5.76764 357.501 3.90777 358.028 6.51152 361.37Z" fill="#FDBA74"/>
<path d="M14.5511 355.801C15.0494 357.143 16.1813 358.094 17.4076 357.957C19.2139 357.875 19.1091 357.527 16.9501 355.972C15.5678 354.969 14.2647 353.917 14.0016 353.667C13.7384 353.417 14.0527 354.46 14.5511 355.801Z" fill="#FDBA74"/>
<path d="M92.3436 309.547C93.9994 312.236 95.0265 312.84 96.7944 312.163C98.6415 311.438 98.5903 310.645 96.6049 307.953C95.1586 305.959 93.618 305.054 92.3253 305.438C90.6238 305.867 90.5958 306.709 92.3436 309.547Z" fill="#FDBA74"/>
<path d="M86.2079 319.094C86.6679 319.841 87.5238 320.344 87.999 320.052C88.3949 319.808 88.0934 318.963 87.3958 318.363C86.6063 317.613 85.8424 317.259 85.6048 317.405C85.4464 317.503 85.656 318.198 86.2079 319.094Z" fill="#FDBA74"/>
<path d="M91.7517 315.68C92.2117 316.427 93.0676 316.93 93.5428 316.638C93.9387 316.394 93.6372 315.549 92.9397 314.949C92.1501 314.199 91.3862 313.845 91.1486 313.991C90.9902 314.089 91.1998 314.784 91.7517 315.68Z" fill="#FDBA74"/>
<path d="M30.9081 364.272C32.3927 366.861 32.4055 367.059 30.7089 365.013C29.7226 363.766 28.4323 362.912 27.9571 363.205C27.5611 363.449 28.0467 364.592 29.1122 365.79C30.1777 366.988 31.2432 368.187 31.4271 368.485C32.347 369.979 38.8306 364.544 38.2939 362.609C37.9668 361.368 37.7956 361.267 37.53 362.255C37.4228 363.145 36.4213 362.938 35.0134 361.538C31.8297 358.142 28.5955 360.339 30.9081 364.272Z" fill="#FDBA74"/>
<path d="M229.602 866.422C226.648 865.187 224.338 864.072 224.406 863.906C224.473 863.741 222.73 862.93 220.335 862.021C213.149 859.294 212.167 858.313 218.574 860.408C224.684 862.381 224.583 861.785 218.557 859.605C216.145 858.737 215.882 858.534 217.77 858.993C219.335 859.394 220.774 859.26 220.698 858.602C220.926 858.045 222.289 858.097 224.066 858.825C227.621 860.282 224.903 856.782 220.908 854.711C218.903 853.696 218.996 853.469 221.484 854.151C225.859 855.293 223.591 853.231 218.166 851.273C216.058 850.506 216.397 850.524 219.147 851.41C221.61 852.154 223.963 852.323 224.572 851.68C225.63 850.788 225.113 850.359 220.111 848.213C216.294 846.553 214.602 845.618 214.779 845.184C214.957 844.751 213.273 843.796 210.031 842.419C205.909 840.658 207.137 841.04 214.957 843.907C222.777 846.774 224.309 847.257 221.11 845.778C217.623 844.156 217.648 844.094 221.566 845.507C224.884 846.698 224.909 846.636 222.243 845.543C220.17 844.694 217.292 843.273 216.209 842.54C214.288 841.319 215.261 841.477 220.144 843.068C223.513 844.135 225.078 844.535 223.301 843.807C221.524 843.079 220.787 842.343 221.625 841.987C222.818 841.608 222.581 841.342 220.381 840.802C217.876 840.161 217.308 839.857 218.172 839.439C218.696 839.003 217.342 838.087 213.288 836.16C209.234 834.234 208.692 833.867 211.383 834.898C214.075 835.928 213.559 835.5 209.293 833.245C200.77 828.716 202.86 828.681 212.069 833.226C214.658 834.504 215.556 834.848 215.666 834.579C215.742 834.393 214.624 833.743 212.847 833.014C211.366 832.407 209.927 831.697 209.978 831.574C210.02 831.47 211.814 832.157 213.854 833.09C216.469 834.306 216.486 834.265 214.21 833.067C210.206 831.016 205.06 826.69 207.726 827.782C208.911 828.268 211.238 829.342 213.253 830.336C215.843 831.614 216.731 831.978 216.799 831.813C216.858 831.669 215.445 830.897 213.989 830.228C212.245 829.417 212.008 829.151 212.948 829.392C214.488 829.854 213.32 829.327 210.324 828.196C207.633 827.165 204.687 825.91 203.553 825.301C202.428 824.671 202.732 824.771 204.772 825.704C206.812 826.636 208.31 827.202 208.352 827.098C208.403 826.975 206.964 826.264 205.187 825.536C203.409 824.808 203.155 824.583 204.696 825.046C205.94 825.387 206.642 825.361 206.431 825.033C205.914 824.605 207.184 824.884 208.995 825.53C210.501 826.075 212.05 826.517 212.101 826.393C212.16 826.248 210.374 825.541 207.641 824.613C204.001 823.363 203.121 822.978 203.248 822.669C203.485 822.091 209.02 823.78 211.855 825.304C212.989 825.913 214.31 826.068 214.817 825.674C215.325 825.279 217.618 825.592 219.743 826.318C225.498 828.315 228.34 823.911 223.465 820.611C220.74 818.82 220.587 818.347 222.779 818.908C224.345 819.309 225.115 819.118 224.362 818.424C223.617 817.708 224.311 817.704 226.714 818.592C229.406 819.623 229.439 819.54 227.12 818.445C223.346 816.681 221.094 812.046 224.944 813.624C228.203 814.959 221.246 810.831 216.887 808.804C212.816 806.918 211.792 806.041 215.626 807.66C221.229 810.028 223.344 810.775 219.561 809.032C215.778 807.288 215.812 807.206 219.79 808.474C223.48 809.601 223.488 809.58 219.569 808.167C215.964 806.834 215.676 806.692 219.028 807.801C223.615 809.27 224.326 808.38 219.628 806.335C217.58 805.423 217.335 805.178 218.9 805.579C222.607 806.664 221.448 805.273 216.124 802.223C213.339 800.576 212.907 799.941 214.939 800.05C216.318 800.061 217.418 799.909 217.173 799.664C217.232 799.519 218.171 799.76 219.356 800.245C222.022 801.338 222.876 797.565 220.337 796.163C219.194 795.574 219.668 795.262 221.014 795.356C223.333 795.607 222.537 795.016 217.112 792.214C213.396 790.306 209.63 788.521 208.42 788.098C205.982 787.292 198.483 783.64 198.61 783.331C198.661 783.207 200.777 783.953 203.147 784.924C205.516 785.896 207.522 786.91 207.438 787.117C207.599 787.568 207.599 787.568 210.705 788.431C212.567 788.953 213.32 788.804 212.541 788.171C211.762 787.539 212.473 787.493 214.284 788.138C216.087 788.805 216.789 788.779 215.706 788.046C213.852 786.66 211.761 783.32 212.15 782.37C212.607 782.1 210.771 780.672 208.536 779.371C206.293 778.09 205.218 777.336 206.403 777.822C207.588 778.307 207.046 777.941 205.328 777.068C203.61 776.195 202.332 775.093 202.823 774.739C203.271 773.645 197.6 769.755 193.639 768.445C191.811 767.84 191.718 768.067 193.673 769.206C195.645 770.304 195.866 770.611 194.384 770.004C192.903 769.397 190.051 767.915 188.121 766.714C186.183 765.534 183.636 764.153 182.154 763.546C180.673 762.939 179.565 762.267 179.666 762.02C179.793 761.71 178.346 761.021 175.053 759.768C172.658 758.859 171.482 758.353 172.413 758.614C173.344 758.875 172.811 758.487 171.067 757.676C169.611 757.008 168.079 756.525 167.986 756.752C167.885 756.999 166.624 756.699 164.847 755.971C163.365 755.364 161.842 754.86 161.791 754.984C161.749 755.088 163.213 755.736 165.024 756.381C167.436 757.249 167.403 757.332 164.914 756.65C163.044 756.149 162.646 756.275 163.501 756.722C164.364 757.148 163.747 756.967 161.969 756.238C159.896 755.389 158.339 754.968 158.245 755.195C158.152 755.422 156.891 755.122 155.114 754.394C153.633 753.787 152.473 753.239 152.507 753.157C153.574 753.087 152.194 752.233 148.343 750.655C145.973 749.684 143.426 748.302 142.376 747.486C141.335 746.65 139.372 745.532 137.594 744.804C135.817 744.075 135.157 743.998 135.952 744.589C137.002 745.405 136.096 745.082 129.63 742.287C120.227 738.217 106.169 730.311 112.203 732.47C114.311 733.238 114.979 733.295 114.141 732.807C111.306 731.283 114.852 732.76 119.465 735.012C122.63 736.574 122.597 736.657 118.365 735.164C115.64 734.216 114.996 734.097 116.774 734.825C118.255 735.432 122.461 736.987 125.787 738.157C131.542 740.154 131.542 740.154 125.474 737.233C122.292 735.712 120.04 734.452 120.988 734.672C122.291 734.869 114.014 731.429 111.23 730.625C108.75 729.922 100.752 726.645 100.862 726.376C100.904 726.273 102.724 726.898 104.797 727.748C107.167 728.719 110.51 729.848 112.694 730.429C117.374 731.672 113.345 728.84 106.236 725.927C102.681 724.47 102.055 724.31 104.594 725.712C106.549 726.851 106.481 727.016 104.374 726.249C101.962 725.381 102.207 725.626 104.493 726.804C106.202 727.697 106.71 728.146 105.491 727.743C104.273 727.34 102.521 726.55 101.979 726.183C101.15 725.675 98.5344 724.458 96.1646 723.487C92.9062 722.152 92.0852 721.623 93.1599 721.533C94.9117 721.479 94.3192 721.237 78.6364 714.762C70.9431 711.585 69.1404 710.919 69.5975 711.492C70.0969 711.962 68.5313 711.561 66.737 710.874C64.3419 709.965 62.92 709.213 63.0299 708.945C63.1399 708.677 62.0057 708.067 59.8899 707.321C58.0872 706.654 57.0801 706.579 57.8673 707.191C58.8661 708.131 58.5614 708.03 52.4592 705.192C44.3172 701.422 39.5523 699.541 32.5193 697.286C27.9322 695.816 26.7389 695.351 24.1828 693.99C22.7694 693.218 21.4067 692.323 21.4828 692.137C21.5505 691.972 18.1481 690.143 14.1194 688.155C10.0823 686.187 5.5288 683.791 3.86988 682.774C1.9655 681.511 0.789072 681.005 -1.37752 680.382C-3.55256 679.78 -5.03367 679.173 -7.62354 677.895C-10.2134 676.617 -10.1627 676.493 -7.39517 677.338C-4.33146 678.304 -4.91544 678.041 -10.5859 675.838C-16.8489 673.392 -17.1366 673.25 -13.1589 674.518C-11.0008 675.161 -10.3491 675.26 -12.1264 674.531C-13.6075 673.924 -14.4201 673.374 -13.4384 673.512C-12.4567 673.649 -13.2692 673.099 -15.0465 672.37C-16.8239 671.642 -18.3473 671.138 -18.398 671.262C-18.4488 671.386 -21.1401 670.356 -24.3732 668.958C-29.0789 666.934 -30.2976 666.531 -30.1367 666.982C-30.2382 667.23 -29.214 668.108 -27.826 668.942C-26.4548 669.817 -27.1572 669.842 -30.5172 668.755C-33.8855 667.688 -34.2156 667.649 -31.2534 668.863C-28.5874 669.956 -28.9344 669.958 -32.9037 668.669C-35.9589 667.682 -41.0708 665.804 -44.3292 664.469C-49.365 662.405 -49.6443 662.243 -45.9628 663.39C-42.2812 664.537 -42.2728 664.516 -47.3593 662.576C-50.66 661.344 -53.9015 659.968 -55.3234 659.217C-56.1613 658.729 -57.2192 658.777 -57.1936 659.559C-57.278 660.609 -58.5813 660.413 -63.1177 658.819C-66.4522 657.669 -68.0264 657.29 -66.9345 658.002C-65.8511 658.735 -66.4689 658.555 -69.6851 657.116C-75.8381 654.402 -76.007 655.658 -70.0571 658.868C-65.2412 661.468 -65.5459 661.368 -75.025 657.483C-84.2078 653.72 -84.4956 653.578 -79.6123 655.169C-76.8786 656.097 -75.5838 656.314 -76.7179 655.705C-77.8436 655.075 -78.9354 654.362 -78.8678 654.197C-78.724 653.846 -89.0325 649.453 -89.4641 649.662C-90.5811 649.855 -89.7849 652.978 -88.7353 653.793C-87.9397 654.385 -89.4716 653.902 -94.2365 652.021C-100.483 649.534 -101.117 649.395 -100.592 650.646C-100.22 651.426 -101.286 651.495 -103.063 650.767C-104.544 650.16 -105.958 650.231 -106.237 650.913C-106.22 651.715 -107.362 651.97 -108.285 651.689C-109.495 651.265 -110.291 650.674 -110.147 650.323C-109.859 649.621 -112.432 648.302 -118.466 646.142C-122.08 644.83 -122.376 646.396 -118.931 650.653C-117.086 652.903 -114.182 655.106 -112.075 655.873C-110.865 656.296 -108.537 657.371 -107.132 658.163C-105.44 659.098 -104.729 659.052 -105.287 657.883C-105.753 656.487 -105.415 656.505 -102.639 658.173C-100.683 659.311 -99.6424 660.148 -99.9978 660.171C-100.345 660.173 -99.2106 660.783 -97.1371 661.632C-95.3597 662.361 -94.8265 662.748 -95.7913 662.57C-96.7476 662.371 -96.4937 662.595 -94.9872 663.14C-90.764 664.654 -88.9357 666.102 -92.905 664.813C-95.6556 663.927 -95.664 663.948 -92.6595 665.058C-90.8484 665.704 -89.0795 666.453 -89.1303 666.577C-89.1726 666.68 -90.7044 666.197 -92.2024 665.631C-93.9967 664.944 -92.6171 665.799 -89.4601 667.382C-84.2973 669.98 -83.7472 670.326 -87.4202 669.158C-90.4924 668.212 -90.5262 668.295 -87.5894 669.571C-82.6044 671.758 -83.3406 671.866 -88.3764 669.803C-90.7461 668.832 -93.4629 667.863 -94.1145 667.765C-95.3755 667.465 -96.2642 667.101 -98.2616 666.065C-101.393 664.42 -109.518 661.453 -106.7 663.017C-105.565 663.627 -107.173 663.329 -110.525 662.221C-113.589 661.255 -114.232 661.136 -112.124 661.903C-110.017 662.67 -108.553 663.319 -108.612 663.463C-108.663 663.587 -111.058 662.678 -114.003 661.423C-122.526 657.737 -121.002 659.085 -112.226 662.995C-108.129 664.818 -104.033 666.641 -103.745 666.783C-103.161 667.047 -103.551 667.152 -104.837 666.914C-106.14 666.718 -108.552 665.85 -112.073 664.311C-116.483 662.407 -117.109 662.247 -116.135 663.249C-115.399 663.984 -116.389 663.868 -118.463 663.018C-120.24 662.29 -121.687 661.6 -121.637 661.477C-121.594 661.373 -123.033 660.663 -124.81 659.935C-126.588 659.207 -127.536 658.987 -126.418 659.638C-125.606 660.188 -126.545 659.947 -128.915 658.976C-131.285 658.005 -133.9 656.789 -134.442 656.422C-135.271 655.913 -136.194 655.632 -136.287 655.859C-136.684 655.985 -134.738 657.145 -132.427 658.26C-130.117 659.376 -128.162 660.514 -128.246 660.721C-128.424 661.154 -141.102 656.634 -142.727 655.534C-144.064 654.576 -155.075 651.053 -156.801 651.044C-157.808 650.969 -156.471 651.927 -154.178 653.084C-151.3 654.504 -151.046 654.729 -153.416 653.758C-155.786 652.786 -156.505 652.853 -155.345 654.245C-154.397 655.308 -153.83 656.457 -153.982 656.828C-154.422 657.058 -153.017 659.538 -151.019 662.261C-149.317 664.863 -147.311 667.565 -147.15 668.017C-145.973 670.21 -146.261 670.068 -142.3 671.378C-137.73 672.889 -132.686 674.932 -135.47 674.129C-136.41 673.888 -135.851 674.214 -134.37 674.821C-132.593 675.549 -131.052 676.011 -130.985 675.846C-130.917 675.681 -132.043 675.051 -133.524 674.444C-138.263 672.502 -139.618 670.742 -135.725 671.373C-132.153 671.944 -126.669 673.758 -126.898 674.315C-126.948 674.439 -126.077 674.844 -125.163 675.147C-120.296 676.779 -112.552 680.676 -111.968 681.783C-111.612 682.604 -110.207 683.396 -106.052 685.075C-103.377 686.147 -101.05 687.221 -101.1 687.345C-101.168 687.51 -105.349 685.893 -111.561 683.324C-122.217 678.933 -123.131 678.631 -120.397 680.402C-119.576 680.931 -116.944 682.106 -114.252 683.137C-110.359 684.612 -109.801 684.937 -111.163 684.885C-112.509 684.792 -111.688 685.321 -109.022 686.413C-103.097 688.841 -103.74 688.722 -114.1 685.297C-118.983 683.705 -123.291 682.398 -123.341 682.522C-123.418 682.708 -122.529 683.072 -119.787 683.979C-117.654 684.684 -113.465 686.28 -110.502 687.494C-106.059 689.315 -105.492 689.619 -108.243 688.733C-110.697 687.969 -110.46 688.235 -108.158 689.371C-105.568 690.649 -105.593 690.711 -107.963 689.74C-110.037 688.89 -112.373 687.837 -113.21 687.349C-117.163 685.174 -120.845 684.027 -119.042 685.538C-118.314 686.294 -118.804 686.647 -120.658 686.105C-123.155 685.443 -123.747 685.2 -125.042 684.139C-126.379 683.182 -128.69 682.066 -132.845 680.387C-142.045 676.666 -142.697 676.567 -139.506 679.755C-138.067 681.309 -136.238 683.601 -135.68 684.77C-135.18 686.084 -133.072 687.695 -129.357 689.603C-121.367 693.745 -119.471 695.872 -125.819 693.633C-130.355 692.039 -130.372 692.08 -124.786 694.49C-117.431 697.648 -114.96 698.372 -117.372 696.66C-118.455 695.927 -119.31 694.636 -119.598 693.65C-119.59 692.786 -120.149 690.773 -120.573 689.274C-120.7 687.896 -120.429 687.235 -119.964 687.787C-119.21 688.482 -116.671 689.884 -114.327 690.917C-109.638 692.983 -108.978 693.904 -113.717 691.962C-115.198 691.355 -115.833 691.216 -114.987 691.683C-114.149 692.171 -110.332 693.832 -107.073 695.167L-100.853 697.716L-107.268 695.642C-114.292 693.366 -117.187 693.674 -111.262 696.102C-108.892 697.073 -108.926 697.156 -111.381 696.391C-116.281 694.841 -112.946 696.834 -106.082 699.502C-98.9222 702.292 -94.9696 704.466 -101.588 702.043C-107.005 700.065 -108.35 699.971 -103.289 701.973C-101.495 702.66 -99.1673 703.734 -98.634 704.121C-97.813 704.651 -99.0148 704.206 -101.943 702.91C-104.584 701.756 -106.674 700.947 -106.725 701.071C-106.776 701.195 -104.745 702.148 -102.079 703.24C-98.8201 704.576 -97.686 705.185 -98.9893 704.988C-99.971 704.851 -99.48 705.342 -98.0243 706.011C-93.3693 708.159 -95.2651 707.72 -101.486 705.171C-104.744 703.835 -107.452 702.846 -107.495 702.949C-107.545 703.073 -104.913 704.248 -101.655 705.583C-98.3964 706.919 -95.7727 708.114 -95.815 708.218C-95.8658 708.341 -97.6769 707.696 -100.047 706.725C-102.416 705.754 -105.142 704.806 -106.106 704.627C-108.662 704.11 -108.95 703.968 -101.892 707.005C-96.898 709.172 -95.984 709.474 -97.0336 708.658C-97.8376 708.088 -97.186 708.186 -95.7387 708.876C-94.283 709.544 -93.1742 710.216 -93.2419 710.381C-93.3096 710.546 -91.8792 711.277 -90.3981 711.884C-84.7699 714.19 -87.7657 713.903 -95.3996 711.425C-99.6736 710.035 -103.093 709.092 -103.16 709.257C-103.27 709.526 -104.151 709.141 -107.57 707.354C-110.134 706.014 -111.362 704.788 -111.328 703.861C-111.032 703.139 -111.684 702.197 -112.869 701.711C-114.35 701.104 -115.458 701.277 -115.729 701.937C-116.051 702.722 -117.726 702.59 -120.748 701.52C-124.387 700.27 -124.531 700.621 -120.662 704.689C-114.212 711.744 -114.221 711.764 -109.777 713.585C-103.853 716.013 -101.314 716.571 -101.822 715.278C-102.237 713.758 -104.429 712.354 -108.923 710.657C-111.014 709.848 -113.646 708.673 -114.467 708.144C-116.93 706.556 -116.312 706.737 -111.682 708.947C-108.212 710.61 -107.298 710.913 -105.648 711.107L-103.363 711.44L-96.4652 714.87C-89.8466 718.136 -89.5758 718.32 -94.1121 716.726C-101.67 714.063 -99.0545 716.123 -90.2355 719.93C-84.0572 722.582 -83.7779 722.745 -87.9842 721.19C-90.9802 720.058 -93.4092 719.232 -93.4599 719.356C-93.5022 719.459 -92.0296 720.086 -90.5231 720.631C-88.7204 721.298 -87.5524 721.825 -87.6032 721.948C-87.6539 722.072 -86.4944 722.62 -84.9879 723.165C-83.4815 723.71 -81.7972 724.665 -80.7561 725.502C-78.2168 727.747 -79.689 728.808 -83.2437 727.351C-84.7248 726.744 -85.3595 726.604 -84.5216 727.092C-83.3875 727.702 -82.1601 728.928 -81.8299 729.811C-81.4912 730.673 -79.9507 731.979 -78.4949 732.648C-74.7202 734.411 -73.3656 737.016 -76.8016 736.114C-78.9767 735.512 -79.0528 735.698 -77.0131 736.63C-75.5574 737.299 -74.8294 738.055 -75.2863 738.326C-76.0395 738.475 -75.7684 739.502 -74.5157 740.667C-72.8312 742.466 -73.5844 742.615 -79.9825 741.343C-81.582 741.025 -81.3027 741.188 -79.1445 741.831C-76.9864 742.475 -75.8438 743.063 -75.1412 743.882C-74.701 744.496 -75.3781 744.459 -76.8338 743.791C-78.2895 743.122 -78.9327 743.003 -77.8324 743.695C-73.2872 746.955 -68.2424 751.53 -69.0548 751.824C-69.4948 752.053 -69.1899 752.998 -67.9203 754.121C-66.9469 755.122 -65.8294 756.617 -65.7616 757.295C-65.38 760.586 -63.3648 765.799 -62.3152 766.615C-61.5111 767.185 -60.8591 768.971 -60.5371 770.718C-60.5114 772.344 -60.0032 774.481 -59.072 775.585C-58.4371 776.569 -57.8698 777.717 -57.9967 778.027C-57.8527 778.52 -55.3305 779.963 -50.9633 781.97C-47.1801 783.713 -44.3363 785.216 -44.404 785.381C-44.4717 785.546 -43.0159 786.215 -41.2132 786.881C-39.4021 787.527 -38.7335 787.584 -39.5545 787.055C-40.6633 786.383 -38.8436 787.008 -34.4003 788.829C-28.7721 791.136 -27.9342 791.624 -27.3416 792.71C-27.2399 793.306 -27.9592 793.373 -29.7112 792.583C-33.1981 790.961 -35.4493 790.545 -33.875 791.769C-32.5461 792.747 -27.5611 794.934 -27.4173 794.584C-27.2651 794.212 -18.2598 798.408 -15.4922 800.097C-12.7668 801.889 -4.2102 805.492 -3.99874 804.976C-3.91416 804.769 -2.0015 805.167 0.444389 805.953C3.52502 806.877 5.01458 807.464 8.18843 809.005C11.0661 810.426 11.3707 810.526 9.68645 809.571C8.00217 808.616 8.90775 808.939 14.4937 811.348C18.9031 813.251 23.3803 814.99 26.7233 816.119C31.8859 817.873 32.1822 817.994 32.0553 818.303C31.9707 818.51 34.2813 819.625 38.1321 821.203C41.3906 822.539 43.498 823.306 42.3554 822.717C41.509 822.25 42.1606 822.348 43.6756 822.872C45.4783 823.539 46.1469 823.596 45.0296 822.945C43.6585 822.07 47.2723 823.382 54.0516 826.257C55.2365 826.742 56.1759 826.982 56.2436 826.817C56.3112 826.652 57.8515 827.115 59.3326 827.721C65.2571 830.149 74.4736 832.986 72.5438 831.785C71.4604 831.052 71.782 831.111 74.1095 832.186C76.1492 833.118 77.6557 833.663 77.7318 833.477C77.8079 833.292 75.7936 832.297 72.8314 831.083C68.3881 829.263 68.3965 829.242 72.9836 830.712C79.7035 832.887 80.558 831.646 74.405 828.932C67.9642 826.076 69.4198 825.901 76.3428 828.424C79.652 829.636 82.3941 830.542 82.4364 830.439C82.4872 830.315 79.855 829.14 76.5966 827.805C70.3759 825.256 69.5718 824.685 72.8555 825.115C74.8189 825.389 75.4113 825.632 80.3117 828.026C83.494 829.547 85.7285 830.848 85.6524 831.034C85.5762 831.22 87.5821 832.234 89.9519 833.206C92.3217 834.177 93.5404 834.58 92.6855 834.133C92.1269 833.808 92.7701 833.926 94.5813 834.572C96.0878 835.117 97.6788 835.456 97.7719 835.229C98.0087 834.651 100.886 836.071 102.359 837.542C103.121 838.216 104.171 839.032 105.017 839.499C105.872 839.946 102.859 838.856 98.6778 837.239C94.5054 835.602 91.1877 834.411 91.1539 834.494C90.9932 834.886 94.6664 836.897 98.2211 838.354C100.295 839.204 102.614 840.298 103.443 840.807C104.256 841.357 105.441 841.843 109.376 843.214C112.11 844.142 115.69 845.536 117.433 846.347C119.177 847.158 120.429 847.478 120.556 847.169C120.675 846.88 122.257 847.239 123.738 847.846C125.516 848.574 126.641 849.204 126.565 849.39C126.354 849.906 133.886 852.631 135.299 852.559C137.068 852.465 142.468 854.484 147.884 857.307C154.452 860.697 163.136 863.99 160.766 862.176C159.708 861.38 160.385 861.417 162.458 862.266C164.236 862.995 165.598 863.891 165.463 864.221C165.319 864.572 166.394 865.326 168.171 866.054C169.653 866.661 171.633 867.738 172.699 868.512C173.47 869.165 175.154 870.121 176.33 870.627C177.219 870.991 181.053 872.61 184.879 874.25C190.481 876.619 191.387 876.941 190.041 876.004C189.254 875.392 190.236 875.529 192.944 876.519C198.361 878.497 201.06 878.663 195.999 876.662C193.612 875.732 192.216 874.919 192.377 874.526C192.52 874.176 193.815 874.393 195.593 875.121C197.074 875.728 199.24 876.351 200.544 876.547C201.551 876.622 203.7 877.286 204.86 877.834C206.019 878.381 208.135 879.128 209.1 879.306C211.952 879.945 212.112 877.865 209.336 877.041C208.101 876.679 204.783 875.488 202.083 874.478C198.19 873.003 196.743 872.314 196.844 872.066C196.937 871.839 200.881 873.19 206.577 875.331C215.853 878.867 215.862 878.847 210.656 876.352C205.138 873.778 205.147 873.757 210.191 875.8C213.153 877.014 214.676 877.517 213.83 877.05C212.696 876.441 210.36 875.387 208.574 874.679C206.492 873.85 202.938 872.394 200.576 871.402C197.03 869.925 197.055 869.863 201.566 871.518C204.275 872.508 206.763 873.19 206.847 872.983C206.949 872.736 209.09 873.42 212.052 874.634C214.718 875.727 216.225 876.272 215.065 875.724C214.211 875.277 215.175 875.456 217.613 876.262C220.355 877.168 221.667 877.344 220.609 876.549C219.83 875.917 219.991 875.525 221.252 875.824C225.373 876.742 226.862 875.641 223.604 874.305C221.827 873.577 220.963 873.151 221.59 873.311C222.52 873.572 222.03 873.082 220.938 872.369C219.854 871.636 221.251 871.605 224.721 872.425C231.347 873.983 230.881 871.743 224.356 868.249C222.079 867.051 220.149 865.851 220.234 865.644C220.318 865.438 218.609 864.544 216.831 863.816C214.174 862.703 214.495 862.762 217.534 863.79C219.963 864.617 223.924 865.927 226.378 866.691C230.059 867.838 230.076 867.797 225.879 866.222C222.891 865.07 219.971 863.753 218.007 862.635C216.332 861.659 216.112 861.351 217.288 861.858C218.464 862.364 222.942 864.102 227.139 865.678C232.539 867.697 233.157 867.878 229.602 866.422ZM213.427 855.237C211.413 854.243 211.159 854.019 212.937 854.747C217.084 856.446 220.537 858.151 218.404 857.445C217.498 857.123 215.154 856.09 213.427 855.237ZM205.51 870.338C201.997 868.778 201.083 868.476 202.463 869.33C203.555 870.043 202.937 869.862 199.712 868.444C197.664 867.533 195.658 866.518 195.726 866.353C195.794 866.188 194.66 865.578 192.882 864.85C191.401 864.243 189.979 863.492 190.055 863.306C190.148 863.079 191.655 863.624 194.879 865.042C197.52 866.196 201.938 868.079 205.196 869.414C208.751 870.871 210.765 871.865 210.655 872.133C210.537 872.422 209.022 871.898 205.51 870.338ZM205.029 877.421C203.573 876.752 202.168 875.96 202.236 875.794C202.304 875.629 203.861 876.05 205.367 876.595C207.178 877.241 208.287 877.913 208.16 878.222C208.033 878.532 206.772 878.232 205.029 877.421ZM217.517 824.152C216.983 823.765 217.102 823.476 217.77 823.533C218.744 823.691 219.285 824.057 219.15 824.388C219.006 824.739 218.354 824.64 217.517 824.152ZM194.618 868.213C192.84 867.485 192.578 867.281 193.517 867.521C194.448 867.782 196.861 868.65 198.342 869.257C200.119 869.985 200.373 870.21 199.442 869.949C198.503 869.708 196.099 868.82 194.618 868.213ZM207.403 821.816C205.008 820.907 203.857 820.339 204.813 820.538C205.465 820.636 207.902 821.442 209.993 822.25C212.388 823.16 213.539 823.728 212.583 823.529C211.931 823.43 209.494 822.624 207.403 821.816ZM185.748 863.686C182.303 861.961 180.34 860.843 181.55 861.267C182.769 861.67 185.688 862.987 187.965 864.185C194.237 867.454 192.95 867.216 185.748 863.686ZM188.322 868.381C186.815 867.836 185.072 867.025 184.251 866.496C183.142 865.825 184.056 866.127 186.984 867.423C191.673 869.489 191.935 869.693 188.322 868.381ZM172.765 858.221C171.902 857.795 171.682 857.488 172.629 857.708C173.586 857.907 174.449 858.333 174.356 858.56C174.559 858.908 173.62 858.668 172.765 858.221ZM169.466 866.271C168.603 865.845 168.383 865.538 169.331 865.758C170.287 865.957 171.15 866.383 171.057 866.61C171.26 866.958 170.321 866.718 169.466 866.271ZM194.25 774.553C190.509 772.707 193.581 773.652 197.94 775.679C199.692 776.47 200.217 776.878 199.277 776.637C198.042 776.276 196.264 775.547 194.25 774.553ZM196.247 772.213C194.766 771.606 193.318 770.917 193.369 770.793C193.411 770.69 194.935 771.194 196.416 771.8C198.193 772.529 199.336 773.118 199.294 773.221C199.243 773.345 198.024 772.942 196.247 772.213ZM163.852 851.267C162.371 850.66 160.924 849.97 160.966 849.867C161.017 849.743 162.557 850.206 164.064 850.751C165.866 851.417 167.017 851.985 166.95 852.15C166.874 852.336 165.629 851.995 163.852 851.267ZM138.065 805.287C134.941 803.621 134.882 801.234 138.081 802.714C139.249 803.241 140.485 804.446 140.51 805.228C140.502 806.093 139.766 806.201 138.065 805.287ZM129.525 799.955C128.018 799.41 126.545 798.783 126.596 798.659C126.638 798.555 128.187 798.997 129.694 799.542C131.496 800.209 132.673 800.715 132.622 800.839C132.58 800.942 131.327 800.622 129.525 799.955ZM107.683 839.748C106.819 839.322 106.599 839.015 107.547 839.235C108.503 839.434 109.367 839.86 109.274 840.087C109.477 840.435 108.538 840.195 107.683 839.748ZM112.681 789.558C111.2 788.951 110.049 788.383 110.1 788.259C110.142 788.156 112.258 788.902 114.924 789.995C117.294 790.966 118.437 791.554 117.506 791.293C116.566 791.053 114.459 790.286 112.681 789.558ZM113.952 794.9C113.867 795.106 112.996 794.701 111.328 793.704C109.399 792.503 108.806 792.261 108.679 792.57C108.214 792.862 103.449 790.981 101.536 789.74C99.9026 788.66 113.782 792.781 115.712 793.982C116.542 794.49 116.711 794.921 116.025 794.906C115.044 794.768 114.316 794.856 113.952 794.9ZM113.614 797.413C109.467 795.713 106.953 794.249 109.433 794.952C110.686 795.273 112.158 795.9 113.859 796.814C116.966 798.521 116.873 798.748 113.614 797.413ZM112.174 791.64C110.718 790.971 109.297 790.22 109.347 790.096C109.39 789.993 110.905 790.517 112.386 791.124C114.163 791.852 115.289 792.482 115.213 792.668C115.145 792.833 113.926 792.43 112.174 791.64ZM111.626 798.044C110.737 797.68 109.29 796.991 108.452 796.503C107.605 796.035 108.24 796.175 109.721 796.782C111.498 797.51 112.937 798.22 112.895 798.324C112.844 798.447 112.218 798.287 111.626 798.044ZM62.464 828.523C60.9829 827.916 59.5356 827.226 59.5864 827.102C59.6287 826.999 61.1521 827.503 62.6332 828.11C64.4105 828.838 65.5531 829.427 65.5108 829.53C65.4601 829.654 64.2413 829.251 62.464 828.523ZM48.5841 823.558C44.437 821.859 44.4624 821.797 47.5261 822.763C49.6673 823.447 51.8001 824.153 52.3925 824.395C52.9849 824.638 53.5182 825.025 53.4505 825.191C53.3828 825.356 51.2501 824.65 48.5841 823.558ZM63.8005 711.286C61.4646 710.232 59.4587 709.217 59.5264 709.052C59.5941 708.887 61.7184 709.613 64.0881 710.584C66.4579 711.555 68.4553 712.591 68.3623 712.818C68.2523 713.086 66.7289 712.582 63.8005 711.286ZM-35.5619 779C-37.5762 778.006 -37.8302 777.781 -36.0528 778.509C-31.9057 780.209 -28.4526 781.913 -30.5853 781.208C-31.4909 780.885 -33.8353 779.852 -35.5619 779ZM-72.4265 659.585C-73.9329 659.04 -75.3802 658.35 -75.3125 658.185C-75.2364 657.999 -73.6961 658.462 -72.215 659.069C-70.4377 659.797 -69.2866 660.365 -69.3289 660.468C-69.3797 660.592 -70.6237 660.251 -72.4265 659.585ZM-97.9934 692.427C-101.929 691.055 -103.114 690.57 -108.344 688.137C-111.84 686.536 -111.797 686.433 -106.914 688.024C-99.2717 690.481 -93.0596 693.051 -94.1935 693.285C-94.5912 693.411 -96.1823 693.073 -97.9934 692.427ZM-99.3988 689.947C-100.863 689.299 -101.684 688.769 -101.616 688.604C-101.549 688.439 -100.592 688.638 -99.0943 689.204C-97.884 689.627 -97.063 690.157 -97.173 690.425C-97.283 690.693 -98.2393 690.494 -99.3988 689.947ZM-105.352 709.541C-106.215 709.114 -106.436 708.807 -105.488 709.027C-104.531 709.226 -103.668 709.652 -103.761 709.879C-103.558 710.228 -104.497 709.987 -105.352 709.541ZM-104.243 674.751C-114.018 670.746 -117.742 668.858 -108.263 672.742C-102.339 675.17 -97.0659 677.5 -97.1335 677.665C-97.1335 677.665 -100.4 676.35 -104.243 674.751ZM-106.083 655.604C-109.097 653.67 -108.327 653.479 -103.545 655.318C-100.244 656.55 -99.6938 656.896 -101.369 656.764C-102.74 656.733 -102.216 657.141 -99.2535 658.354C-95.995 659.69 -96.0119 659.731 -99.6343 658.44C-102.952 657.249 -104.712 656.479 -106.083 655.604ZM-108.391 667.145C-110.761 666.174 -112.775 665.18 -112.699 664.994C-112.581 664.705 -111.692 665.07 -108.222 666.733C-105.912 667.848 -103.897 668.842 -103.914 668.884C-103.931 668.925 -106.021 668.116 -108.391 667.145ZM-106.292 669.621C-107.155 669.195 -107.375 668.888 -106.427 669.107C-105.471 669.306 -104.608 669.732 -104.701 669.959C-104.498 670.308 -105.437 670.067 -106.292 669.621ZM-120.195 674.844C-121.676 674.237 -123.123 673.547 -123.073 673.424C-123.03 673.32 -121.507 673.824 -120.026 674.431C-118.248 675.159 -117.106 675.748 -117.148 675.851C-117.199 675.975 -118.418 675.572 -120.195 674.844ZM-126.796 673.224C-128.244 672.534 -129.454 672.11 -129.496 672.214C-129.547 672.337 -131.07 671.834 -132.848 671.105C-137.587 669.163 -134.329 669.655 -129.285 671.698C-122.759 674.347 -120.153 675.584 -122.319 674.962C-123.25 674.701 -125.341 673.892 -126.796 673.224ZM-130.305 686.852C-132.616 685.737 -133.725 685.065 -132.794 685.326C-130.314 686.029 -125.676 688.219 -125.837 688.611C-125.947 688.879 -126.835 688.515 -130.305 686.852ZM-130.885 665.473C-138.943 662.34 -138.367 662.624 -139.501 661.171C-139.874 660.391 -138.909 660.57 -134.745 662.228C-129.396 664.372 -128.025 665.247 -132.849 663.511C-137.97 661.654 -136.319 662.692 -130.098 665.241C-122.1 668.518 -122.828 668.606 -130.885 665.473ZM-138.088 660.255C-140.255 659.633 -141.127 659.227 -142.76 658.148C-144.919 656.661 -143.048 657.162 -138.393 659.311C-134.61 661.054 -134.373 661.32 -138.088 660.255ZM-139.638 658.126C-140.501 657.7 -140.721 657.393 -139.773 657.612C-138.817 657.811 -137.953 658.237 -138.046 658.465C-137.843 658.813 -138.783 658.573 -139.638 658.126Z" fill="#FDBA74"/>
<path d="M217.164 835.989C214.498 834.896 212.382 834.15 212.34 834.253C212.289 834.377 213.44 834.945 214.921 835.552C216.698 836.28 218.806 837.047 219.745 837.287C220.676 837.548 219.534 836.96 217.164 835.989Z" fill="#FDBA74"/>
<path d="M166.429 754.643C165.786 754.524 165.684 754.771 166.217 755.159C167.055 755.647 167.69 755.786 167.808 755.497C167.927 755.208 167.377 754.862 166.429 754.643Z" fill="#FDBA74"/>
<path d="M36.4989 820.968C33.2151 819.695 31.9964 819.292 34.0446 820.203C36.1012 821.094 36.9391 821.582 35.712 821.2C34.781 820.939 35.3396 821.264 36.8207 821.871C38.3018 822.478 40.443 823.163 41.4248 823.3C42.4403 823.355 41.5685 822.949 36.4989 820.968Z" fill="#FDBA74"/>
</g>
<defs>
<clipPath id="clip0_8_2">
<rect width="390" height="844" rx="40" fill="white"/>
</clipPath>
</defs>
</svg>
