<svg width="390" height="844" viewBox="0 0 390 844" fill="none" xmlns="http://www.w3.org/2000/svg">
<rect width="390" height="844" rx="40" fill="url(#paint0_linear_3_2)"/>
<rect x="51" y="292" width="298" height="48" rx="9" fill="white" stroke="white" stroke-width="2"/>
<path d="M174.976 314.192C174.976 314.757 174.843 315.291 174.576 315.792C174.309 316.293 173.883 316.704 173.296 317.024C172.709 317.333 171.957 317.488 171.04 317.488H169.024V322H167.2V310.88H171.04C171.893 310.88 172.613 311.029 173.2 311.328C173.797 311.616 174.24 312.011 174.528 312.512C174.827 313.013 174.976 313.573 174.976 314.192ZM171.04 316C171.733 316 172.251 315.845 172.592 315.536C172.933 315.216 173.104 314.768 173.104 314.192C173.104 312.976 172.416 312.368 171.04 312.368H169.024V316H171.04ZM180.54 322.144C179.708 322.144 178.956 321.957 178.284 321.584C177.612 321.2 177.084 320.667 176.7 319.984C176.316 319.291 176.124 318.491 176.124 317.584C176.124 316.688 176.321 315.893 176.716 315.2C177.11 314.507 177.649 313.973 178.332 313.6C179.014 313.227 179.777 313.04 180.62 313.04C181.462 313.04 182.225 313.227 182.908 313.6C183.59 313.973 184.129 314.507 184.524 315.2C184.918 315.893 185.116 316.688 185.116 317.584C185.116 318.48 184.913 319.275 184.508 319.968C184.102 320.661 183.548 321.2 182.844 321.584C182.15 321.957 181.382 322.144 180.54 322.144ZM180.54 320.56C181.009 320.56 181.446 320.448 181.852 320.224C182.268 320 182.604 319.664 182.86 319.216C183.116 318.768 183.244 318.224 183.244 317.584C183.244 316.944 183.121 316.405 182.876 315.968C182.63 315.52 182.305 315.184 181.9 314.96C181.494 314.736 181.057 314.624 180.588 314.624C180.118 314.624 179.681 314.736 179.276 314.96C178.881 315.184 178.566 315.52 178.332 315.968C178.097 316.405 177.98 316.944 177.98 317.584C177.98 318.533 178.22 319.269 178.7 319.792C179.19 320.304 179.804 320.56 180.54 320.56ZM188.743 314.464C189.009 314.016 189.361 313.669 189.799 313.424C190.247 313.168 190.775 313.04 191.383 313.04V314.928H190.919C190.204 314.928 189.66 315.109 189.287 315.472C188.924 315.835 188.743 316.464 188.743 317.36V322H186.919V313.184H188.743V314.464ZM195.187 314.672V319.552C195.187 319.883 195.262 320.123 195.411 320.272C195.571 320.411 195.838 320.48 196.211 320.48H197.331V322H195.891C195.07 322 194.441 321.808 194.003 321.424C193.566 321.04 193.347 320.416 193.347 319.552V314.672H192.307V313.184H193.347V310.992H195.187V313.184H197.331V314.672H195.187ZM202.709 314.672H201.077V322H199.237V314.672H198.197V313.184H199.237V312.56C199.237 311.547 199.503 310.811 200.037 310.352C200.581 309.883 201.429 309.648 202.581 309.648V311.168C202.026 311.168 201.637 311.275 201.413 311.488C201.189 311.691 201.077 312.048 201.077 312.56V313.184H202.709V314.672ZM208.149 322.144C207.317 322.144 206.565 321.957 205.893 321.584C205.221 321.2 204.693 320.667 204.309 319.984C203.925 319.291 203.733 318.491 203.733 317.584C203.733 316.688 203.93 315.893 204.325 315.2C204.72 314.507 205.258 313.973 205.941 313.6C206.624 313.227 207.386 313.04 208.229 313.04C209.072 313.04 209.834 313.227 210.517 313.6C211.2 313.973 211.738 314.507 212.133 315.2C212.528 315.893 212.725 316.688 212.725 317.584C212.725 318.48 212.522 319.275 212.117 319.968C211.712 320.661 211.157 321.2 210.453 321.584C209.76 321.957 208.992 322.144 208.149 322.144ZM208.149 320.56C208.618 320.56 209.056 320.448 209.461 320.224C209.877 320 210.213 319.664 210.469 319.216C210.725 318.768 210.853 318.224 210.853 317.584C210.853 316.944 210.73 316.405 210.485 315.968C210.24 315.52 209.914 315.184 209.509 314.96C209.104 314.736 208.666 314.624 208.197 314.624C207.728 314.624 207.29 314.736 206.885 314.96C206.49 315.184 206.176 315.52 205.941 315.968C205.706 316.405 205.589 316.944 205.589 317.584C205.589 318.533 205.829 319.269 206.309 319.792C206.8 320.304 207.413 320.56 208.149 320.56ZM216.352 310.16V322H214.528V310.16H216.352ZM219.675 312.016C219.344 312.016 219.067 311.904 218.843 311.68C218.619 311.456 218.507 311.179 218.507 310.848C218.507 310.517 218.619 310.24 218.843 310.016C219.067 309.792 219.344 309.68 219.675 309.68C219.995 309.68 220.267 309.792 220.491 310.016C220.715 310.24 220.827 310.517 220.827 310.848C220.827 311.179 220.715 311.456 220.491 311.68C220.267 311.904 219.995 312.016 219.675 312.016ZM220.571 313.184V322H218.747V313.184H220.571ZM226.79 322.144C225.958 322.144 225.206 321.957 224.534 321.584C223.862 321.2 223.334 320.667 222.95 319.984C222.566 319.291 222.374 318.491 222.374 317.584C222.374 316.688 222.571 315.893 222.966 315.2C223.36 314.507 223.899 313.973 224.582 313.6C225.264 313.227 226.027 313.04 226.87 313.04C227.712 313.04 228.475 313.227 229.158 313.6C229.84 313.973 230.379 314.507 230.774 315.2C231.168 315.893 231.366 316.688 231.366 317.584C231.366 318.48 231.163 319.275 230.758 319.968C230.352 320.661 229.798 321.2 229.094 321.584C228.4 321.957 227.632 322.144 226.79 322.144ZM226.79 320.56C227.259 320.56 227.696 320.448 228.102 320.224C228.518 320 228.854 319.664 229.11 319.216C229.366 318.768 229.494 318.224 229.494 317.584C229.494 316.944 229.371 316.405 229.126 315.968C228.88 315.52 228.555 315.184 228.15 314.96C227.744 314.736 227.307 314.624 226.838 314.624C226.368 314.624 225.931 314.736 225.526 314.96C225.131 315.184 224.816 315.52 224.582 315.968C224.347 316.405 224.23 316.944 224.23 317.584C224.23 318.533 224.47 319.269 224.95 319.792C225.44 320.304 226.054 320.56 226.79 320.56Z" fill="white"/>
<path d="M60 358H340C344.971 358 349 362.029 349 367V397C349 401.971 344.971 406 340 406H60C55.0294 406 51 401.971 51 397V367C51 362.029 55.0294 358 60 358Z" fill="white" stroke="white" stroke-width="2"/>
<path d="M160.024 376.88V388H158.2V376.88H160.024ZM166.867 379.04C167.56 379.04 168.179 379.184 168.723 379.472C169.277 379.76 169.709 380.187 170.019 380.752C170.328 381.317 170.483 382 170.483 382.8V388H168.675V383.072C168.675 382.283 168.477 381.68 168.083 381.264C167.688 380.837 167.149 380.624 166.467 380.624C165.784 380.624 165.24 380.837 164.835 381.264C164.44 381.68 164.243 382.283 164.243 383.072V388H162.419V379.184H164.243V380.192C164.541 379.829 164.92 379.547 165.379 379.344C165.848 379.141 166.344 379.04 166.867 379.04ZM176.009 388.144C175.316 388.144 174.692 388.021 174.137 387.776C173.593 387.52 173.161 387.179 172.841 386.752C172.521 386.315 172.351 385.829 172.329 385.296H174.217C174.249 385.669 174.425 385.984 174.745 386.24C175.076 386.485 175.487 386.608 175.977 386.608C176.489 386.608 176.884 386.512 177.161 386.32C177.449 386.117 177.593 385.861 177.593 385.552C177.593 385.221 177.433 384.976 177.113 384.816C176.804 384.656 176.308 384.48 175.625 384.288C174.964 384.107 174.425 383.931 174.009 383.76C173.593 383.589 173.231 383.328 172.921 382.976C172.623 382.624 172.473 382.16 172.473 381.584C172.473 381.115 172.612 380.688 172.889 380.304C173.167 379.909 173.561 379.6 174.073 379.376C174.596 379.152 175.193 379.04 175.865 379.04C176.868 379.04 177.673 379.296 178.281 379.808C178.9 380.309 179.231 380.997 179.273 381.872H177.449C177.417 381.477 177.257 381.163 176.969 380.928C176.681 380.693 176.292 380.576 175.801 380.576C175.321 380.576 174.953 380.667 174.697 380.848C174.441 381.029 174.313 381.269 174.313 381.568C174.313 381.803 174.399 382 174.569 382.16C174.74 382.32 174.948 382.448 175.193 382.544C175.439 382.629 175.801 382.741 176.281 382.88C176.921 383.051 177.444 383.227 177.849 383.408C178.265 383.579 178.623 383.835 178.921 384.176C179.22 384.517 179.375 384.971 179.385 385.536C179.385 386.037 179.247 386.485 178.969 386.88C178.692 387.275 178.297 387.584 177.785 387.808C177.284 388.032 176.692 388.144 176.009 388.144ZM183.484 380.672V385.552C183.484 385.883 183.559 386.123 183.708 386.272C183.868 386.411 184.135 386.48 184.508 386.48H185.628V388H184.188C183.367 388 182.738 387.808 182.3 387.424C181.863 387.04 181.644 386.416 181.644 385.552V380.672H180.604V379.184H181.644V376.992H183.484V379.184H185.628V380.672H183.484ZM186.701 383.552C186.701 382.667 186.883 381.883 187.245 381.2C187.619 380.517 188.12 379.989 188.749 379.616C189.389 379.232 190.093 379.04 190.861 379.04C191.555 379.04 192.157 379.179 192.669 379.456C193.192 379.723 193.608 380.059 193.917 380.464V379.184H195.757V388H193.917V386.688C193.608 387.104 193.187 387.451 192.653 387.728C192.12 388.005 191.512 388.144 190.829 388.144C190.072 388.144 189.379 387.952 188.749 387.568C188.12 387.173 187.619 386.629 187.245 385.936C186.883 385.232 186.701 384.437 186.701 383.552ZM193.917 383.584C193.917 382.976 193.789 382.448 193.533 382C193.288 381.552 192.963 381.211 192.557 380.976C192.152 380.741 191.715 380.624 191.245 380.624C190.776 380.624 190.339 380.741 189.933 380.976C189.528 381.2 189.197 381.536 188.941 381.984C188.696 382.421 188.573 382.944 188.573 383.552C188.573 384.16 188.696 384.693 188.941 385.152C189.197 385.611 189.528 385.963 189.933 386.208C190.349 386.443 190.787 386.56 191.245 386.56C191.715 386.56 192.152 386.443 192.557 386.208C192.963 385.973 193.288 385.632 193.533 385.184C193.789 384.725 193.917 384.192 193.917 383.584ZM201.705 379.04C202.388 379.04 202.99 379.179 203.513 379.456C204.046 379.723 204.462 380.059 204.761 380.464V379.184H206.601V388.144C206.601 388.955 206.43 389.675 206.089 390.304C205.748 390.944 205.252 391.445 204.601 391.808C203.961 392.171 203.193 392.352 202.297 392.352C201.102 392.352 200.11 392.069 199.321 391.504C198.532 390.949 198.084 390.192 197.977 389.232H199.785C199.924 389.691 200.217 390.059 200.665 390.336C201.124 390.624 201.668 390.768 202.297 390.768C203.033 390.768 203.625 390.544 204.073 390.096C204.532 389.648 204.761 388.997 204.761 388.144V386.672C204.452 387.088 204.03 387.44 203.497 387.728C202.974 388.005 202.377 388.144 201.705 388.144C200.937 388.144 200.233 387.952 199.593 387.568C198.964 387.173 198.462 386.629 198.089 385.936C197.726 385.232 197.545 384.437 197.545 383.552C197.545 382.667 197.726 381.883 198.089 381.2C198.462 380.517 198.964 379.989 199.593 379.616C200.233 379.232 200.937 379.04 201.705 379.04ZM204.761 383.584C204.761 382.976 204.633 382.448 204.377 382C204.132 381.552 203.806 381.211 203.401 380.976C202.996 380.741 202.558 380.624 202.089 380.624C201.62 380.624 201.182 380.741 200.777 380.976C200.372 381.2 200.041 381.536 199.785 381.984C199.54 382.421 199.417 382.944 199.417 383.552C199.417 384.16 199.54 384.693 199.785 385.152C200.041 385.611 200.372 385.963 200.777 386.208C201.193 386.443 201.63 386.56 202.089 386.56C202.558 386.56 202.996 386.443 203.401 386.208C203.806 385.973 204.132 385.632 204.377 385.184C204.633 384.725 204.761 384.192 204.761 383.584ZM210.821 380.464C211.088 380.016 211.44 379.669 211.877 379.424C212.325 379.168 212.853 379.04 213.461 379.04V380.928H212.997C212.282 380.928 211.738 381.109 211.365 381.472C211.002 381.835 210.821 382.464 210.821 383.36V388H208.997V379.184H210.821V380.464ZM214.53 383.552C214.53 382.667 214.711 381.883 215.074 381.2C215.447 380.517 215.948 379.989 216.578 379.616C217.218 379.232 217.922 379.04 218.69 379.04C219.383 379.04 219.986 379.179 220.498 379.456C221.02 379.723 221.436 380.059 221.746 380.464V379.184H223.586V388H221.746V386.688C221.436 387.104 221.015 387.451 220.482 387.728C219.948 388.005 219.34 388.144 218.658 388.144C217.9 388.144 217.207 387.952 216.578 387.568C215.948 387.173 215.447 386.629 215.074 385.936C214.711 385.232 214.53 384.437 214.53 383.552ZM221.746 383.584C221.746 382.976 221.618 382.448 221.362 382C221.116 381.552 220.791 381.211 220.386 380.976C219.98 380.741 219.543 380.624 219.074 380.624C218.604 380.624 218.167 380.741 217.762 380.976C217.356 381.2 217.026 381.536 216.77 381.984C216.524 382.421 216.402 382.944 216.402 383.552C216.402 384.16 216.524 384.693 216.77 385.152C217.026 385.611 217.356 385.963 217.762 386.208C218.178 386.443 218.615 386.56 219.074 386.56C219.543 386.56 219.98 386.443 220.386 386.208C220.791 385.973 221.116 385.632 221.362 385.184C221.618 384.725 221.746 384.192 221.746 383.584ZM236.653 379.04C237.347 379.04 237.965 379.184 238.509 379.472C239.064 379.76 239.496 380.187 239.805 380.752C240.125 381.317 240.285 382 240.285 382.8V388H238.477V383.072C238.477 382.283 238.28 381.68 237.885 381.264C237.491 380.837 236.952 380.624 236.269 380.624C235.587 380.624 235.043 380.837 234.637 381.264C234.243 381.68 234.045 382.283 234.045 383.072V388H232.237V383.072C232.237 382.283 232.04 381.68 231.645 381.264C231.251 380.837 230.712 380.624 230.029 380.624C229.347 380.624 228.803 380.837 228.397 381.264C228.003 381.68 227.805 382.283 227.805 383.072V388H225.981V379.184H227.805V380.192C228.104 379.829 228.483 379.547 228.941 379.344C229.4 379.141 229.891 379.04 230.413 379.04C231.117 379.04 231.747 379.189 232.301 379.488C232.856 379.787 233.283 380.219 233.581 380.784C233.848 380.251 234.264 379.829 234.829 379.52C235.395 379.2 236.003 379.04 236.653 379.04Z" fill="white"/>
<rect x="50" y="427" width="298" height="48" rx="9" fill="white" stroke="white" stroke-width="2"/>
<path d="M182.384 445.88V447.368H179.424V457H177.6V447.368H174.624V445.88H182.384ZM185.159 447.016C184.829 447.016 184.551 446.904 184.327 446.68C184.103 446.456 183.991 446.179 183.991 445.848C183.991 445.517 184.103 445.24 184.327 445.016C184.551 444.792 184.829 444.68 185.159 444.68C185.479 444.68 185.751 444.792 185.975 445.016C186.199 445.24 186.311 445.517 186.311 445.848C186.311 446.179 186.199 446.456 185.975 446.68C185.751 446.904 185.479 447.016 185.159 447.016ZM186.055 448.184V457H184.231V448.184H186.055ZM191.938 452.6L196.002 457H193.538L190.274 453.208V457H188.45V445.16H190.274V452.04L193.474 448.184H196.002L191.938 452.6ZM204.493 445.88V447.368H201.533V457H199.709V447.368H196.733V445.88H204.493ZM210.165 457.144C209.333 457.144 208.581 456.957 207.909 456.584C207.237 456.2 206.709 455.667 206.325 454.984C205.941 454.291 205.749 453.491 205.749 452.584C205.749 451.688 205.946 450.893 206.341 450.2C206.735 449.507 207.274 448.973 207.957 448.6C208.639 448.227 209.402 448.04 210.245 448.04C211.087 448.04 211.85 448.227 212.533 448.6C213.215 448.973 213.754 449.507 214.149 450.2C214.543 450.893 214.741 451.688 214.741 452.584C214.741 453.48 214.538 454.275 214.133 454.968C213.727 455.661 213.173 456.2 212.469 456.584C211.775 456.957 211.007 457.144 210.165 457.144ZM210.165 455.56C210.634 455.56 211.071 455.448 211.477 455.224C211.893 455 212.229 454.664 212.485 454.216C212.741 453.768 212.869 453.224 212.869 452.584C212.869 451.944 212.746 451.405 212.501 450.968C212.255 450.52 211.93 450.184 211.525 449.96C211.119 449.736 210.682 449.624 210.213 449.624C209.743 449.624 209.306 449.736 208.901 449.96C208.506 450.184 208.191 450.52 207.957 450.968C207.722 451.405 207.605 451.944 207.605 452.584C207.605 453.533 207.845 454.269 208.325 454.792C208.815 455.304 209.429 455.56 210.165 455.56ZM220.032 452.6L224.096 457H221.632L218.368 453.208V457H216.544V445.16H218.368V452.04L221.568 448.184H224.096L220.032 452.6Z" fill="white"/>
<rect x="43" y="284" width="298" height="48" rx="9" fill="#C2410C" stroke="white" stroke-width="2"/>
<path d="M52 350H332C336.971 350 341 354.029 341 359V389C341 393.971 336.971 398 332 398H52C47.0294 398 43 393.971 43 389V359C43 354.029 47.0294 350 52 350Z" fill="#C2410C" stroke="white" stroke-width="2"/>
<rect x="42" y="419" width="298" height="48" rx="9" fill="#C2410C" stroke="white" stroke-width="2"/>
<defs>
<linearGradient id="paint0_linear_3_2" x1="93" y1="157.5" x2="390" y2="844" gradientUnits="userSpaceOnUse">
<stop stop-color="#182A57"/>
<stop offset="1" stop-color="#D24940"/>
</linearGradient>
</defs>
</svg>
